<svg xmlns="http://www.w3.org/2000/svg" width="412" height="472">
  <g
    fill="none"
    fill-rule="evenodd"
    stroke="#162C62"
    stroke-width="8"
    opacity=".15"
  >
    <path
      stroke-linecap="round"
      stroke-linejoin="round"
      d="M252.29 172.41a45.21 45.21 0 1 0-90.43 0 45.21 45.21 0 0 0 90.43 0z"
    />
    <path
      stroke-linecap="round"
      stroke-linejoin="round"
      d="M110.35 314.35c0-53.41 43.3-96.72 96.72-96.72s96.73 43.3 96.73 96.72H110.35zm270.37 52.1a27.09 27.09 0 1 0 0-54.18 27.09 27.09 0 0 0 0 54.18zm-349.61 0a27.09 27.09 0 1 0 0-54.18 27.09 27.09 0 0 0 0 54.18zm349.61-196.96a27.08 27.08 0 1 0 0-54.17 27.08 27.08 0 0 0 0 54.17zm-349.61 0a27.09 27.09 0 1 0 0-54.18 27.09 27.09 0 0 0 0 54.18zM234.15 31.61a27.09 27.09 0 1 0-54.17 0 27.09 27.09 0 0 0 54.17 0zm0 408.69a27.08 27.08 0 1 0-54.16.01 27.08 27.08 0 0 0 54.16 0zm-56.3-10.33L52.36 356.12M356.1 122.71L230.61 47.88m3.37 384.06l125.5-75.82M54.75 123.7l126.47-74.83m199.5 128.28v132.67"
    />
    <path d="M31.11 167.03v142.8" />
    <path
      stroke-linecap="round"
      stroke-linejoin="round"
      d="M207.07 413.23v-58.32m0-263.99V61.65M50.8 319.67l22.68-12.84M281.02 205.6l75.08-48.42m.99 163.48l-20.4-8.77M124.1 205.6l-68.36-46.46"
    />
  </g>
</svg>
