<svg xmlns="http://www.w3.org/2000/svg" width="62" height="64">
  <g fill="none" fill-rule="evenodd">
    <path
      fill="#FFC41D"
      d="M61.2 17a15.5 15.5 0 1 1-31 0 15.5 15.5 0 0 1 31 0"
    />
    <path
      stroke="#FFF"
      stroke-linecap="round"
      stroke-linejoin="round"
      stroke-width="3"
      d="M27.7 34.5a6.5 6.5 0 1 1 0-13 6.5 6.5 0 0 1 0 13zm1.5 12h-14a12 12 0 0 1 11.9-12m18.6 11a8.5 8.5 0 1 0 0-17 8.5 8.5 0 0 0 0 17zm14.5 16c0-8.8-7-16-15.5-16-8.6 0-15.5 7.2-15.5 16h31zm-37-60a21 21 0 0 0-21 21m20-14a13 13 0 0 0-13 13m14-6a7 7 0 0 0-7 7"
    />
  </g>
</svg>
