<svg xmlns="http://www.w3.org/2000/svg" width="62" height="63">
  <g fill="none" fill-rule="evenodd">
    <path
      fill="#FFC41D"
      d="M30.3 16.2a15.7 15.7 0 1 0 31.3 0 15.7 15.7 0 0 0-31.3 0"
    />
    <g stroke="#FFF" stroke-width="3">
      <path d="M41.6 34.5c0-14.4-6-26.1-13.3-26.1-7.3 0-13.2 11.7-13.2 26 0 14.5 6 26.1 13.2 26.1 7.3 0 13.3-11.6 13.3-26z" />
      <path d="M54.4 34.5a26 26 0 1 0-52.1 0 26 26 0 0 0 52.1 0zm0 0h-52M51 21.9H5.7M51 47.2H5.7M28.3 8.5v52" />
    </g>
  </g>
</svg>
