<svg xmlns="http://www.w3.org/2000/svg" width="55" height="54">
  <defs>
    <filter id="a" width="197.2%" height="197.2%" x="-48.6%" y="-34.7%" filterUnits="objectBoundingBox">
      <feOffset dy="5" in="SourceAlpha" result="shadowOffsetOuter1"/>
      <feGaussianBlur in="shadowOffsetOuter1" result="shadowBlurOuter1" stdDeviation="5"/>
      <feColorMatrix in="shadowBlurOuter1" result="shadowMatrixOuter1" values="0 0 0 0 0.0862745098 0 0 0 0 0.17254902 0 0 0 0 0.384313725 0 0 0 0.2 0"/>
      <feMerge>
        <feMergeNode in="shadowMatrixOuter1"/>
        <feMergeNode in="SourceGraphic"/>
      </feMerge>
    </filter>
  </defs>
  <path fill="#FFF" fill-rule="evenodd" d="M3.7 26.8h.8c.9 0 1.5-.7 1.5-1.5 0-.9-.6-1.5-1.5-1.5h-.8c-.3 0-.5-.2-.5-.5V12c0-.3.2-.5.5-.5H9v7c0 .8.6 1.4 1.4 1.4.8 0 1.4-.6 1.4-1.5V11l12.5-7.6v1c0 .8.6 1.4 1.4 1.4.8 0 1.5-.6 1.5-1.5V2.5c0-1-.5-1.8-1.2-2.2-.8-.4-1.7-.4-2.4 0L10 8.6H3.7A3.4 3.4 0 0 0 .3 12v11.2c0 1.9 1.6 3.5 3.4 3.5m22-10c-.8 0-1.4.6-1.4 1.5v14l-9.8-5c-.7-.4-1.6 0-2 .7-.3.7 0 1.6.7 2l10.4 5.3 1.2.3a2 2 0 0 0 1.2-.4c.7-.4 1.2-1.2 1.2-2.1V18.2c0-.8-.7-1.5-1.5-1.5M33.3 2L.5 33c-.6.6-.7 1.5-.1 2.1.3.3.6.5 1 .5s.7-.1 1-.4l32.8-31c.6-.6.6-1.5.1-2.1-.5-.6-1.4-.7-2-.1z" filter="url(#a)" transform="translate(10.4 4.2)"/>
</svg>
