<svg xmlns="http://www.w3.org/2000/svg" width="56" height="56">
  <defs>
    <filter id="a" width="200%" height="200%" x="-51.4%" y="-37.5%" filterUnits="objectBoundingBox">
      <feOffset dy="5" in="SourceAlpha" result="shadowOffsetOuter1"/>
      <feGaussianBlur in="shadowOffsetOuter1" result="shadowBlurOuter1" stdDeviation="5"/>
      <feColorMatrix in="shadowBlurOuter1" result="shadowMatrixOuter1" values="0 0 0 0 0.0862745098 0 0 0 0 0.17254902 0 0 0 0 0.384313725 0 0 0 0.2 0"/>
      <feMerge>
        <feMergeNode in="shadowMatrixOuter1"/>
        <feMergeNode in="SourceGraphic"/>
      </feMerge>
    </filter>
  </defs>
  <g fill="#FFF" fill-rule="evenodd" stroke="#FFF" filter="url(#a)" transform="translate(10.4 5.2)">
    <path d="M14.2 10.6c-.8 0-1.2.5-1.2 1.2v11.8c0 .7.4 1.2 1.2 1.2.7 0 1.1-.5 1.1-1.2V11.8c0-.7-.4-1.2-1.1-1.2m7 0c-.7 0-1.1.5-1.1 1.2v11.8c0 .7.4 1.2 1.1 1.2.7 0 1.2-.5 1.2-1.2V11.8c0-.7-.5-1.2-1.2-1.2"/>
    <path d="M17.7 2.4a15.3 15.3 0 1 0 0 30.6 15.3 15.3 0 1 0 0-30.6m0 33a17.7 17.7 0 1 1 0-35.4 17.7 17.7 0 0 1 0 35.4"/>
  </g>
</svg>
