<svg xmlns="http://www.w3.org/2000/svg" width="49" height="49">
  <path fill="#363636" fill-rule="evenodd" stroke="#036ADD" d="M36.689 41.833a.911.911 0 0 1-.915-.909V38.97a6.033 6.033 0 0 1 1.79-4.303l3.26-3.253a.907.907 0 0 1 .645-.269.906.906 0 0 1 .644.264l3.246 3.224a6.117 6.117 0 0 1 1.8 4.313V40.9c0 .502-.41.908-.914.908l-9.556.025zm2.542 5.212h4.879v-4h-4.88v4zm-1.22 0h-4.243l-9.345-5.916a.618.618 0 0 0-.698.03l-7.73 5.886H11.17v-4.001h.914a2.127 2.127 0 0 0 2.135-2.12V38.97a7.27 7.27 0 0 0-.27-1.953.598.598 0 0 0 .181-.186l3.05-4.958a.6.6 0 0 0 .088-.317v-5.373h14.237v5.553a.6.6 0 0 0 .09.313l3.166 5.227a7.302 7.302 0 0 0-.207 1.69v1.953c0 1.17.956 2.12 2.135 2.12h1.323v4.006zm-32.94 0H9.95v-4H5.071v4zM2.53 41.833a.912.912 0 0 1-.915-.909V38.97a6.035 6.035 0 0 1 1.79-4.303l3.256-3.253a.906.906 0 0 1 .644-.269.908.908 0 0 1 .644.264l3.246 3.224a6.117 6.117 0 0 1 1.8 4.313V40.9c0 .502-.41.908-.915.908l-9.55.025zm19.027-23.954h5.902l1.824 7.087h-9.55l1.824-7.087zm-2.05-1.211a.912.912 0 0 1-.915-.909v-1.954a6.03 6.03 0 0 1 1.79-4.303l3.26-3.253a.907.907 0 0 1 .645-.279.908.908 0 0 1 .644.264l3.246 3.224a6.038 6.038 0 0 1 1.8 4.308v1.954c0 .502-.41.908-.915.908l-9.556.04zM46.25 43.044a2.127 2.127 0 0 0 2.134-2.12V38.97a7.231 7.231 0 0 0-2.154-5.167l-3.255-3.244a2.111 2.111 0 0 0-.9-.522v-3.42a.607.607 0 0 0-.61-.605.608.608 0 0 0-.61.605v3.42c-.34.098-.65.279-.9.527l-3.26 3.253a7.297 7.297 0 0 0-1.402 1.993l-2.562-4.235v-6.022a.607.607 0 0 0-.61-.606h-1.574l-1.834-7.088h.349a2.127 2.127 0 0 0 2.134-2.12v-1.953a7.234 7.234 0 0 0-2.149-5.183L25.8 5.38a2.111 2.111 0 0 0-.9-.522v-3.42a.608.608 0 0 0-.609-.606c-.337 0-.61.27-.61.605v3.421c-.34.096-.649.276-.9.522l-3.266 3.253a7.24 7.24 0 0 0-2.144 5.159v1.953c0 1.171.956 2.12 2.134 2.12h.792l-1.824 7.102h-1.81a.608.608 0 0 0-.615.587v5.807l-2.63 4.28a7.327 7.327 0 0 0-1.353-1.857L8.819 30.56a2.114 2.114 0 0 0-.9-.522v-3.42a.608.608 0 0 0-.61-.606.608.608 0 0 0-.61.605v3.421c-.34.098-.649.279-.9.527l-3.26 3.248A7.234 7.234 0 0 0 .395 38.97v1.954c0 1.171.955 2.12 2.134 2.12h1.323v4H1.309a.608.608 0 0 0-.61.606c0 .335.273.606.61.606h14.897a.608.608 0 0 0 .373-.127l7.535-5.759 9.147 5.783a.618.618 0 0 0 .33.093h14.03c.337 0 .61-.271.61-.605a.608.608 0 0 0-.61-.607h-2.287v-3.99h.915z"/>
</svg>
