<svg xmlns="http://www.w3.org/2000/svg" width="159" height="24">
  <g fill="none" fill-rule="evenodd">
    <path
      fill="#FFF"
      d="M100.2 1.9c-.01-.28-.1-.5-.26-.69-.16-.17-.4-.3-.72-.38A5.07 5.07 0 0 0 98 .71c-.46 0-.85.04-1.16.12-.3.08-.57.2-.78.38a2 2 0 0 0-.51.69 3.9 3.9 0 0 0-.3 1.01c-.1.41-.13.76-.1 1.04.02.29.1.51.24.68.14.17.35.3.62.37a5.96 5.96 0 0 0 2.34 0c.34-.07.63-.2.86-.37.24-.17.43-.4.57-.68.14-.28.25-.63.33-1.04.08-.4.11-.74.1-1.01zm-1.5 6.09a.4.4 0 0 0-.04-.29c-.05-.08-.15-.15-.3-.2a2.88 2.88 0 0 0-.66-.14 9.13 9.13 0 0 0-2.05 0c-.25.03-.46.08-.63.14a.97.97 0 0 0-.36.2.53.53 0 0 0-.15.29l-3 14.42c-.02.1-.01.2.04.29.04.07.14.14.28.2.15.05.35.1.61.12a11.13 11.13 0 0 0 2.05 0c.28-.03.52-.07.7-.12.18-.06.31-.13.4-.2a.57.57 0 0 0 .17-.3L98.69 8z"
    />
    <path
      fill="#FFF"
      d="M111.95 7.48c-.06-.11-.19-.17-.36-.17h-3.14l.71-3.33c.02-.11 0-.2-.05-.3a.63.63 0 0 0-.3-.23 3.1 3.1 0 0 0-.63-.13 11.34 11.34 0 0 0-2.05 0 3.7 3.7 0 0 0-.65.13.97.97 0 0 0-.38.23.62.62 0 0 0-.16.3l-.7 3.33h-5.98c-.21 0-.4.1-.55.3-.15.21-.27.45-.36.74a5.08 5.08 0 0 0-.26 1.59c0 .26.03.43.1.52.07.1.19.14.34.14h6l-1.52 7.22c-.04.14-.07.3-.1.48l-.08.53a5.24 5.24 0 0 0-.08.92c0 .67.09 1.23.27 1.69.17.46.44.83.8 1.13.34.3.77.5 1.29.65a7.03 7.03 0 0 0 2.67.15c.3-.04.58-.09.84-.15.25-.06.47-.14.66-.22.19-.08.33-.17.43-.27.1-.09.18-.23.26-.42a7.93 7.93 0 0 0 .4-1.37c.04-.25.06-.48.06-.67a.8.8 0 0 0-.08-.4c-.06-.08-.13-.12-.2-.12a.81.81 0 0 0-.27.05c-.1.04-.2.1-.33.14a2.8 2.8 0 0 1-1.07.19c-.47 0-.81-.11-1.02-.33-.22-.22-.32-.56-.32-1.03a5.53 5.53 0 0 1 .14-1.22l1.47-6.95h3.2c.1 0 .22-.05.32-.15.1-.1.2-.23.29-.39a5.62 5.62 0 0 0 .37-1.1l.09-.54.03-.42c0-.23-.03-.4-.1-.52M45.45 2.2a.68.68 0 0 0-.33-.22c-.16-.05-.38-.1-.67-.13a15.01 15.01 0 0 0-2.2 0c-.29.03-.53.07-.73.13-.2.06-.35.13-.48.23s-.25.2-.35.33l-7.92 8.93 1.83-8.99a.39.39 0 0 0-.06-.3c-.06-.08-.17-.14-.34-.2-.18-.06-.41-.1-.7-.13a15.75 15.75 0 0 0-2.14 0c-.26.03-.47.07-.64.13a1 1 0 0 0-.37.2.46.46 0 0 0-.14.3l-4.11 19.9c-.04.12-.03.22.03.3.05.08.15.15.3.21.13.06.33.1.6.13a12.86 12.86 0 0 0 2.13 0c.3-.03.55-.07.75-.13.2-.06.34-.13.44-.21.1-.08.16-.18.18-.3l2.02-10.03 4.5 9.97c.05.14.1.25.18.35.08.1.2.17.36.23.17.05.4.1.68.12.28.03.65.04 1.12.04.48 0 .88-.01 1.2-.05.32-.03.57-.08.76-.15a.73.73 0 0 0 .38-.25c.07-.1.11-.23.11-.39 0-.12-.02-.26-.06-.42a7.72 7.72 0 0 0-.2-.56l-4.31-9.39 7.35-7.9c.32-.34.55-.62.7-.84.14-.22.22-.42.22-.62a.5.5 0 0 0-.1-.3m11.23 5.16c-.06-.06-.16-.1-.28-.16a5.44 5.44 0 0 0-1.4-.25c-.4 0-.82.08-1.24.25-.42.17-.82.4-1.21.69a7.62 7.62 0 0 0-2.03 2.36l.38-2.3c.03-.1.01-.2-.02-.29-.04-.08-.12-.14-.25-.19a3.2 3.2 0 0 0-.5-.11 8.57 8.57 0 0 0-1.68 0c-.22.03-.4.07-.55.11a.69.69 0 0 0-.33.2.53.53 0 0 0-.14.28l-3 14.47c-.01.1-.01.2.04.29.04.07.14.14.28.2.15.05.35.1.61.12a11.14 11.14 0 0 0 2.05 0c.28-.02.52-.07.7-.12.18-.06.32-.13.4-.2a.56.56 0 0 0 .17-.3L50 15.9a7.96 7.96 0 0 1 1.66-3.44c.37-.44.77-.8 1.2-1.08.41-.28.8-.41 1.18-.41.19 0 .35.02.5.06l.42.11.34.12c.1.04.2.06.3.06.12 0 .24-.08.35-.24.1-.15.2-.35.29-.6a11.66 11.66 0 0 0 .53-2.8c0-.16-.03-.26-.1-.33m34.63-6.3c.01-.11 0-.2-.05-.3-.04-.09-.15-.16-.3-.21a2.9 2.9 0 0 0-.66-.14 9.52 9.52 0 0 0-2.04 0 2.7 2.7 0 0 0-.63.14.73.73 0 0 0-.35.21.64.64 0 0 0-.13.3L85.43 8.7a4.7 4.7 0 0 0-2.71-1.63 6.59 6.59 0 0 0-5.97 1.72 8.7 8.7 0 0 0-1.56 1.97 13.52 13.52 0 0 0-1.7 4.75 14 14 0 0 0-.2 2.28 9.62 9.62 0 0 0 .37 2.6c.12.4.3.8.53 1.17a3.54 3.54 0 0 0 2.04 1.62 6.23 6.23 0 0 0 3.57-.07 7.65 7.65 0 0 0 3.05-1.85c.38-.39.65-.75.83-1.11l-.58 2.35c-.03.1-.02.2.02.26.04.07.13.13.26.17.14.04.32.07.54.09a9.09 9.09 0 0 0 2.28-.1c.3-.08.46-.22.51-.42l4.58-21.46zm-7.16 13.44a8.02 8.02 0 0 1-1.89 3.72c-.44.47-.92.85-1.42 1.13-.5.28-1 .42-1.48.42-.54 0-.94-.2-1.2-.6a3.5 3.5 0 0 1-.37-1.82 10.98 10.98 0 0 1 .97-4.4c.22-.46.47-.86.76-1.2.29-.35.61-.62.98-.83.36-.2.75-.3 1.19-.3.62 0 1.17.14 1.65.41.48.28.92.7 1.31 1.24l-.5 2.23zm43.3-4.98a3.74 3.74 0 0 0-1.06-1.3 5.52 5.52 0 0 0-1.83-.92 9.23 9.23 0 0 0-2.67-.35 8.47 8.47 0 0 0-7.34 3.82 12.1 12.1 0 0 0-1.87 4.8c-.14.84-.21 1.63-.21 2.36 0 .95.12 1.77.4 2.46.26.7.66 1.27 1.2 1.71.52.45 1.2.8 1.98 1 .8.22 1.73.33 2.8.33.64 0 3.65-.24 5.09-1.46 1.26-1.08.8-2.77.69-2.84a.5.5 0 0 0-.34-.08c-.14.02-1.6.94-4 1.18-1.36.13-2.52-.34-3-.82-.48-.48-.78-2.21-.57-3.3h1.56a22 22 0 0 0 4.29-.36 9.79 9.79 0 0 0 2.96-1.02 4.01 4.01 0 0 0 2.27-3.69c0-.52-.11-1.02-.35-1.52m-4.02 2.7c-.18.27-.45.5-.83.7-.38.19-.89.34-1.5.46-.62.11-1.4.16-2.32.16h-1.45c.15-.5.34-.98.58-1.43.25-.45.54-.83.88-1.16a3.9 3.9 0 0 1 2.72-1.07c.7 0 1.24.14 1.62.43.37.28.56.64.56 1.07 0 .3-.09.58-.26.85M72.07 9.51a3.73 3.73 0 0 0-1.06-1.3 5.52 5.52 0 0 0-1.83-.92 9.23 9.23 0 0 0-2.66-.35 8.47 8.47 0 0 0-7.34 3.82 12.1 12.1 0 0 0-1.88 4.8c-.14.84-.21 1.63-.21 2.36 0 .95.13 1.77.4 2.46.26.7.66 1.27 1.2 1.71.53.45 1.2.8 1.99 1 .8.22 1.72.33 2.79.33.64 0 3.66-.24 5.09-1.46 1.27-1.08.8-2.77.69-2.84a.5.5 0 0 0-.34-.08c-.13.02-1.6.94-4 1.18-1.35.13-2.52-.34-3-.82-.47-.48-.77-2.21-.57-3.3h1.57a22 22 0 0 0 4.28-.36 9.78 9.78 0 0 0 2.96-1.02 4.01 4.01 0 0 0 2.27-3.69c0-.52-.1-1.02-.35-1.52m-4.02 2.7c-.18.27-.45.5-.83.7-.38.19-.88.34-1.5.46-.62.11-1.4.16-2.32.16h-1.45c.15-.5.34-.98.58-1.43a5 5 0 0 1 .88-1.16 3.9 3.9 0 0 1 2.72-1.07c.7 0 1.25.14 1.62.43.38.28.56.64.56 1.07 0 .3-.08.58-.26.85m74.21-3.66l-.37-.36a5.21 5.21 0 0 0-1.56-.87 8.02 8.02 0 0 0-2.47-.4 8.15 8.15 0 0 0-3 .54 8.1 8.1 0 0 0-3.99 3.4 12.7 12.7 0 0 0-1.74 4.74 15 15 0 0 0-.18 2.2c0 1.85.46 3.25 1.4 4.2.92.94 2.33 1.41 4.2 1.41.53 0 .97-.08 1.47-.16s.95-.18 1.37-.3c.43-.13 2.34-1.1 2.74-1.87.43-.84.42-1.66.42-1.85 0-.18-.13-.37-.24-.48-.12-.1-.3-.15-.55-.15-.2 0-.4.08-.63.23-.23.15-.5.32-.82.5a5.8 5.8 0 0 1-2.68.79c-.76 0-1.32-.24-1.67-.7a3.38 3.38 0 0 1-.52-2.06 11.46 11.46 0 0 1 .9-4.36 6 6 0 0 1 .8-1.4c.32-.4.7-.73 1.14-.99a2.9 2.9 0 0 1 1.48-.38 3.28 3.28 0 0 1 2.19.74c.23.18.42.35.57.5.15.15.32.22.48.22.22 0 .4-.09.59-.28.17-.2.32-.44.43-.73a5.1 5.1 0 0 0 .4-1.77.5.5 0 0 0-.16-.36m16.4 4.86a14.7 14.7 0 0 0 .25-2.3c0-.62-.08-1.18-.23-1.69a3.4 3.4 0 0 0-.75-1.32c-.35-.36-.8-.65-1.33-.86-.54-.2-1.2-.31-1.99-.31-.58 0-1.15.1-1.7.27a7.9 7.9 0 0 0-2.8 1.63c-.38.36-.67.7-.88 1.05l.26-.67.26-.76a15.37 15.37 0 0 0 .43-1.57l1.26-5.84c.03-.11 0-.2-.04-.3-.05-.09-.15-.16-.3-.21a2.76 2.76 0 0 0-.66-.14 9.67 9.67 0 0 0-2.05 0c-.25.03-.46.08-.62.14a.77.77 0 0 0-.36.21.66.66 0 0 0-.13.3l-4.49 21.35c-.02.11-.02.21.03.29.04.08.14.15.28.2.15.06.36.1.61.13a11.15 11.15 0 0 0 2.05 0c.28-.03.52-.07.7-.12.18-.06.32-.13.4-.21a.56.56 0 0 0 .17-.29l1.27-6.55c.14-.7.39-1.38.73-2.02a8.5 8.5 0 0 1 1.18-1.68c.44-.48.9-.86 1.4-1.13.5-.27.97-.42 1.43-.42.27 0 .5.04.7.12.2.08.35.19.48.33.12.14.2.3.26.5.05.2.08.41.08.64a11.05 11.05 0 0 1-.17 1.5l-1.87 8.71a.36.36 0 0 0 .04.29c.04.08.14.15.29.2.14.06.35.1.61.13s.6.04 1 .04c.44 0 .79-.01 1.07-.04a3 3 0 0 0 .68-.12c.17-.06.3-.13.38-.21a.55.55 0 0 0 .16-.29l1.9-8.98z"
    />
    <path
      fill="#FBB03B"
      d="M17.72 8.59h2.99a.6.6 0 0 1 .6.73l-2.55 13.19a.95.95 0 0 1-.9.73h-2.99a.6.6 0 0 1-.6-.73l2.56-13.19c.07-.4.48-.73.89-.73m-7.8 5.49h2.99a.6.6 0 0 1 .6.74l-1.49 7.69a.95.95 0 0 1-.89.73H8.14a.6.6 0 0 1-.6-.73l1.49-7.7c.07-.4.48-.73.89-.73m-7.8 5.5H5.1a.6.6 0 0 1 .6.73l-.42 2.2a.95.95 0 0 1-.9.73H1.42a.6.6 0 0 1-.61-.73l.43-2.2c.07-.4.48-.73.89-.73"
    />
  </g>
</svg>
