<?xml version="1.0" encoding="UTF-8"?>
<svg width="165px" height="37px" viewBox="0 0 165 37" version="1.1" xmlns="http://www.w3.org/2000/svg" xmlns:xlink="http://www.w3.org/1999/xlink">
    <!-- Generator: Sketch 46.2 (44496) - http://www.bohemiancoding.com/sketch -->
    <title>Page 1</title>
    <desc>Created with Sketch.</desc>
    <defs>
        <polygon id="path-1" points="0.202795188 0.275008821 28.6300583 0.275008821 28.6300583 28.8716391 0.202795188 28.8716391"></polygon>
    </defs>
    <g id="Kreditech-Homepage" stroke="none" stroke-width="1" fill="none" fill-rule="evenodd">
        <g transform="translate(-718.000000, -4411.000000)" id="section-6-partners">
            <g transform="translate(0.000000, 4076.000000)">
                <g id="Group-18" transform="translate(389.000000, 275.000000)">
                    <g id="Page-1" transform="translate(329.000000, 60.465116)">
                        <g id="Group-3" transform="translate(7.621492, 0.042553)">
                            <mask id="mask-2" fill="white">
                                <use xlink:href="#path-1"></use>
                            </mask>
                            <g id="Clip-2"></g>
                            <path d="M27.5595041,1.33804812 C27.4432763,1.38504731 27.3232379,1.42442502 27.2111384,1.4799984 C25.4855057,2.33328789 23.7601905,3.1881652 22.0364632,4.04526544 C21.8868914,4.11957498 21.7782852,4.18181716 21.6007679,4.04685325 C17.7855763,1.15259182 13.4861023,-0.0757385726 8.71949447,0.36059182 C5.6267567,0.643857257 2.80553456,1.69657578 0.202795188,3.4599984 C0.905877787,3.97000321 1.5987984,4.45650842 2.27171259,4.96968885 C2.49591147,5.14053729 2.65373986,5.14530072 2.90270858,5.00811387 C6.8868433,2.80836087 11.0719949,2.36504411 15.3844889,3.79883721 C24.5185289,6.83504892 28.6128577,17.3527073 23.9802611,25.8046239 C23.7236709,26.2727105 23.706205,26.5794755 24.0342467,27.0008805 C24.490901,27.5864651 24.8716581,28.2314338 25.2984616,28.8716391 C25.3880141,28.750648 25.4505739,28.6722101 25.5067824,28.5893264 C27.2305097,26.0399374 28.2654447,23.2314178 28.5448994,20.1704362 C28.9732908,15.4816311 27.7862435,11.2266159 24.9650213,7.44476824 C24.8087808,7.23549479 24.8122739,7.08973376 24.9199275,6.8737915 C25.8291079,5.04876183 26.7281264,3.21865116 27.6296853,1.39044587 L27.6373068,1.30152847 C27.6112667,1.31359583 27.5855442,1.32598075 27.5595041,1.33804812" id="Fill-1" fill="#363636" mask="url(#mask-2)"></path>
                        </g>
                        <path d="M4.24939439,4.59966544 C4.24145533,4.5856927 4.23319872,4.57140241 4.22525966,4.55711211 C4.22525966,4.56441604 4.22271917,4.57489559 4.22652991,4.57870634 C4.23383384,4.58601026 4.24494852,4.58982101 4.25447538,4.59521957 C4.31830537,4.70414338 4.37610168,4.81719551 4.44691804,4.92135589 C5.79846255,6.917234 7.1538178,8.91120674 8.50472719,10.90772 C10.5739621,13.966161 12.6343054,17.0300006 14.7143374,20.0808202 C14.9890287,20.4844417 15.1871875,20.9576093 15.613991,21.2465909 C17.6409902,22.6203647 19.6695772,23.9922332 21.696894,25.3660071 C24.0287528,26.9465139 26.3577536,28.5305139 28.6915179,30.1078451 C29.7632901,30.8318868 30.8436366,31.543226 31.9198547,32.2605989 C31.9249357,32.2698082 31.9287464,32.2809229 31.9360504,32.2882268 C31.9398611,32.2920375 31.9500231,32.289497 31.957327,32.2898146 C31.9433543,32.281558 31.9293816,32.2736189 31.9150913,32.2656799 C31.9385909,32.0926085 31.8118836,31.9865427 31.729635,31.8645989 C30.8277585,30.5302027 29.9211185,29.1989822 29.0189245,27.8649036 C26.3475917,23.914748 23.6775291,19.9639573 21.0068314,16.0134842 C20.8858403,15.8343791 20.7502412,15.6733751 20.5657376,15.5485732 C15.2595917,11.9623439 9.95598621,8.37262133 4.65047538,4.78512173 C4.52853152,4.70287314 4.4221482,4.57616584 4.24939439,4.59966544" id="Fill-4" fill="#363636"></path>
                        <path d="M28.4028539,33.3762582 C28.339659,33.3260834 28.3107609,33.3013136 28.2799573,33.2787666 C27.601327,32.7878156 26.9157103,32.3063913 26.2485123,31.8008324 C26.0706775,31.6658685 25.9579429,31.6944491 25.7861418,31.790988 C22.3475788,33.7233536 18.6918034,34.2755942 14.8346935,33.4753376 C8.08300465,32.0748885 2.94865982,25.9497498 2.73906881,19.0716712 C2.64729334,16.0691211 3.32147779,13.2621893 4.83815461,10.665166 C4.94834868,10.4768516 4.95882823,10.340935 4.82799262,10.1535734 C4.37800706,9.50828709 3.93786592,8.85601443 3.51773119,8.19103929 C3.35704475,7.93730714 3.29162694,7.98684683 3.14745373,8.19961347 C1.14808244,11.1421443 0.092505854,14.3990617 0.00612894948,17.9449607 C-0.097078749,22.1701251 1.1249004,25.996749 3.67270152,29.3819615 C3.8289421,29.5899647 3.82703673,29.7331852 3.71843047,29.9497626 C2.83719551,31.7049286 1.96675766,33.4651756 1.09695493,35.2260577 C1.05154354,35.3181508 0.951193905,35.401352 1.00486191,35.5464779 C1.11410329,35.4937626 1.21477049,35.4464459 1.31416744,35.3969062 C3.06234707,34.5305966 4.81211451,33.6677803 6.55553071,32.7916263 C6.77655397,32.6807971 6.91596375,32.6928645 7.1211089,32.8443416 C11.9029597,36.3749976 17.1865588,37.3746832 22.933481,35.9129447 C24.8893463,35.4156423 26.6905588,34.5537787 28.4028539,33.3762582" id="Fill-6" fill="#363636"></path>
                        <path d="M92.4049646,10.8517973 C92.3319253,10.7562111 92.2763519,10.6873001 92.2245893,10.615531 C90.8079445,8.65045646 89.3878066,6.68760481 87.9800536,4.71617899 C87.8149213,4.48435862 87.6440728,4.38940754 87.3557264,4.39639391 C86.4925925,4.41671788 85.6285059,4.41703545 84.7653719,4.39639391 C84.4589245,4.38908998 84.3503182,4.45958877 84.3582573,4.78731291 C84.3808042,5.7136417 84.3661963,6.64092318 84.3661963,7.56788709 C84.3661963,10.2087339 84.3709597,12.8498983 84.3595275,15.4907451 C84.3582573,15.7873482 84.4287561,15.8880154 84.7358387,15.8715022 C85.2293302,15.8448269 85.7275852,15.8400635 86.2201241,15.8727724 C86.5640439,15.8956369 86.6383535,15.7860779 86.6367657,15.4529553 C86.6224754,12.5834637 86.6288266,9.71397209 86.6288266,6.84448051 L86.6288266,6.35289431 C86.7742701,6.54247891 86.8517553,6.63870024 86.9241594,6.73841476 C88.6799605,9.14775878 90.437667,11.5551974 92.1855291,13.9702576 C92.3551073,14.2043009 92.4271939,14.2427259 92.6183663,13.9785142 C93.6964898,12.488195 94.7943022,11.0121662 95.886716,9.53200898 C96.619967,8.53772189 97.3554409,7.54438749 98.1490287,6.47070986 C98.1490287,6.64346367 98.1487111,6.71459759 98.1490287,6.78573152 C98.1607785,9.57837306 98.1725283,12.3710146 98.1855484,15.1636561 C98.186501,15.3154508 98.2144465,15.4681982 98.2055548,15.6187227 C98.1934874,15.8251381 98.2846277,15.8721373 98.475165,15.868009 C99.0207368,15.8572119 99.5675788,15.8505431 100.112515,15.8702319 C100.376092,15.8797588 100.455165,15.8067195 100.45453,15.535839 C100.445321,11.9299208 100.445638,8.32400257 100.453895,4.71808436 C100.45453,4.46594002 100.384031,4.39480609 100.135062,4.39829928 C99.2211185,4.41195445 98.3065395,4.4132247 97.3929132,4.39734659 C97.1452148,4.39321828 97.0064401,4.48023031 96.8667128,4.67680128 C96.0886855,5.77302582 95.2947801,6.85845325 94.5062733,7.94769142 C93.8092244,8.91117498 93.1121755,9.8749761 92.4049646,10.8517973" id="Fill-12" fill="#363636"></path>
                        <path d="M144.304972,11.5771727 C145.314185,12.9954053 146.31133,14.3971246 147.355157,15.8639442 C146.487894,15.8639442 145.695577,15.8614037 144.903259,15.865532 C144.707323,15.8668022 144.654608,15.7067509 144.571089,15.5905232 C143.699381,14.3733075 142.827991,13.1557742 141.969303,11.9293492 C141.838149,11.7426226 141.706996,11.6657726 141.476129,11.6670428 C139.7994,11.6772048 138.12299,11.680698 136.446579,11.6648199 C136.151882,11.6619618 136.094085,11.7483387 136.097579,12.0246178 C136.113139,13.1929289 136.096308,14.3618752 136.109963,15.5301864 C136.113139,15.7909049 136.052485,15.8826804 135.777793,15.8709306 C135.258262,15.8483836 134.735237,15.84235 134.21634,15.8725184 C133.892427,15.8912545 133.847016,15.7626419 133.847968,15.4819169 C133.857178,12.8401174 133.853367,10.1980003 133.853367,7.5562008 C133.853367,6.61621684 133.863211,5.67623288 133.847016,4.73656648 C133.84257,4.4653684 133.927994,4.3974101 134.190935,4.39836279 C137.22683,4.40661941 140.262724,4.3856603 143.297983,4.4117004 C144.770836,4.42408532 146.038544,4.93409014 146.722573,6.33263384 C147.300536,7.5142826 147.263381,8.7492818 146.666364,9.92680225 C146.250676,10.7461126 145.495513,11.1643419 144.647622,11.4317293 C144.540286,11.4657084 144.41866,11.4622152 144.304972,11.5771727 Z M139.703433,9.62651548 C140.744402,9.62651548 141.786006,9.63000866 142.827292,9.62397498 C143.041329,9.62270473 143.258224,9.60206319 143.469085,9.56363817 C144.346192,9.40358685 144.781887,8.92057482 144.792367,8.11396696 C144.803799,7.24733986 144.345874,6.67953873 143.481153,6.50996055 C143.233454,6.46137354 142.978134,6.43057001 142.72599,6.42961732 C140.618012,6.42326608 138.510035,6.43120513 136.402057,6.41913777 C136.135305,6.41754996 136.096245,6.51186592 136.09942,6.74368629 C136.11117,7.59411772 136.114981,8.44518428 136.097833,9.29561572 C136.092434,9.55760449 136.153406,9.63794771 136.427462,9.63350184 C137.519241,9.61667105 138.611337,9.62651548 139.703433,9.62651548 Z" id="Combined-Shape" fill="#363636"></path>
                        <path d="M163.285217,6.69141556 C163.189949,6.58058637 163.139774,6.50659439 163.074991,6.44911564 C162.780929,6.18839711 162.502427,5.90449655 162.183277,5.6783923 C159.306799,3.6396433 156.218824,3.52373312 153.044791,4.80731933 C151.493817,5.43450457 150.26898,6.51675638 149.679902,8.13981652 C148.820261,10.5091477 149.378853,13.341167 152.127036,14.9391397 C155.134032,16.6876369 158.288694,16.7124067 161.353487,15.1045896 C163.381439,14.0407564 164.350321,12.2217604 164.319835,9.90450938 C164.316977,9.70317498 164.312848,9.57932574 164.045461,9.58059599 C161.569111,9.59044042 159.093079,9.58853504 156.61673,9.58250136 C156.413172,9.5821838 156.355376,9.65172991 156.360457,9.8473482 C156.372524,10.2913001 156.393166,10.7384276 156.356011,11.179839 C156.323937,11.5561501 156.448739,11.6358582 156.811078,11.6304597 C158.356653,11.6085479 159.902545,11.6212504 161.498613,11.6212504 C161.071809,12.5793354 160.418584,13.2595535 159.503687,13.6568237 C158.001301,14.309414 156.445246,14.30211 154.88157,13.9184949 C153.867594,13.6698438 153.002872,13.1522175 152.362032,12.3154412 C150.963488,10.4897764 151.587816,7.98992719 153.731995,6.78033296 C155.931431,5.5399352 159.0175,5.85749735 160.931764,7.51866496 C161.045451,7.61774435 161.124207,7.77207955 161.34396,7.65616937 C161.97051,7.32526961 162.612303,7.023268 163.285217,6.69141556" id="Fill-16" fill="#363636"></path>
                        <path d="M124.936793,15.8644205 C126.892023,15.8644205 128.847254,15.8593395 130.802801,15.8701366 C131.066695,15.8714069 131.158153,15.8050364 131.144181,15.5328856 C131.121951,15.1025889 131.112742,14.6678464 131.146086,14.2388199 C131.172761,13.8945825 131.059391,13.8209081 130.726586,13.8224959 C127.654173,13.8361511 124.581441,13.8247188 121.50871,13.8390091 C121.156851,13.840597 121.023157,13.779625 121.043799,13.3934694 C121.080001,12.7224606 121.074602,12.0473235 121.045704,11.3756796 C121.030144,11.022868 121.105406,10.9079105 121.489021,10.9120388 C123.482041,10.9349033 125.475696,10.9183901 127.469034,10.9279169 C127.711969,10.9288696 127.802792,10.8742489 127.790407,10.6160709 C127.76913,10.1724366 127.758968,9.72530906 127.79263,9.28358011 C127.819622,8.93680225 127.702442,8.86598589 127.37186,8.86852638 C125.37884,8.88472205 123.385185,8.87201957 121.391847,8.88218156 C121.134304,8.8834518 121.036813,8.82883111 121.04761,8.55159936 C121.069204,7.98094018 121.073015,7.40805806 121.046657,6.838034 C121.031732,6.51570842 121.105406,6.41472366 121.453772,6.41662903 C124.399478,6.43314226 127.344867,6.42139246 130.290574,6.43250714 C130.601467,6.43377739 130.748816,6.39471724 130.714519,6.0317437 C130.675459,5.61637241 130.685938,5.19337963 130.712296,4.77610297 C130.730715,4.47568917 130.636399,4.39598107 130.335985,4.39693376 C126.615744,4.40709575 122.895504,4.40677819 119.175263,4.39756889 C118.885011,4.3966162 118.794506,4.46044619 118.795459,4.76848148 C118.807209,8.33629222 118.807209,11.904103 118.795776,15.4719137 C118.794824,15.7805841 118.860242,15.8755352 119.185108,15.8723596 C121.10223,15.8558464 123.019353,15.8644205 124.936793,15.8644205" id="Fill-19" fill="#363636"></path>
                        <path d="M72.8455814,26.5833816 C72.8455814,24.7802637 72.85098,22.9771458 72.8392302,21.1740279 C72.8376423,20.9094986 72.9049655,20.8351891 73.1742582,20.8361418 C76.1961796,20.8459862 79.2184186,20.8380472 82.2406576,20.8459862 C82.9040449,20.847574 83.5515541,20.9692003 84.1584154,21.2572292 C85.569344,21.9272853 86.3041828,23.3680648 86.0758557,25.0149421 C85.8465758,26.6688058 84.8021139,27.7085043 83.0869607,27.995898 C82.6102999,28.0759237 82.1298284,28.1092677 81.6474515,28.1099028 C79.5906014,28.1130784 77.5334338,28.1165716 75.4762662,28.1051394 C75.1869671,28.1035516 75.0837594,28.1673816 75.0888404,28.4782749 C75.1078941,29.633566 75.0885229,30.7894922 75.1018605,31.9447833 C75.1053536,32.2264609 75.055814,32.3534858 74.7331708,32.3347496 C74.2142743,32.3048988 73.691567,32.3109325 73.1720353,32.3331618 C72.8979791,32.3452292 72.8379599,32.2534537 72.8395477,31.9927352 C72.85098,30.1896173 72.8455814,28.3864994 72.8455814,26.5833816 Z M75.3764149,23.5946292 C75.3980091,24.2160983 75.4018199,24.8397904 75.3760974,25.4612595 C75.3618071,25.7997808 75.4469137,25.9099748 75.8079819,25.9071168 C78.0309169,25.8890157 79.6184101,25.8991777 81.8413452,25.8960021 C82.0436322,25.8960021 82.2481423,25.8861577 82.4478889,25.854719 C83.1839979,25.7400791 83.6368415,25.2373782 83.6368415,24.5508088 C83.636524,23.8245442 83.2773612,23.4345779 82.4742465,23.3050125 C82.2999049,23.2767495 82.1201647,23.2729388 81.942965,23.2726212 C80.8378488,23.2697631 80.3678568,23.2710334 79.2630581,23.2710334 C78.0817269,23.2710334 76.9003957,23.2783373 75.719382,23.2653173 C75.4624743,23.2624592 75.3668881,23.3173975 75.3764149,23.5946292 Z" id="Combined-Shape" fill="#363636"></path>
                        <path d="M55.8301251,32.3268106 C56.4188853,31.2448763 56.9746191,30.2226438 57.530988,29.2007288 C58.9920914,26.5189164 60.4560529,23.839327 61.9085822,21.1530688 C62.0337017,20.921566 62.1670778,20.8282027 62.4351002,20.8355067 C63.1585068,20.8555131 63.8828661,20.8482091 64.6065902,20.8383647 C64.794587,20.8358242 64.9031933,20.8923503 64.9956038,21.0625636 C67.0016439,24.7599397 69.0137177,28.4541402 71.0242037,32.1492933 C71.0467506,32.1905764 71.0626287,32.2359878 71.1020064,32.326493 C70.3090537,32.326493 69.5535734,32.3223647 68.7984106,32.3293511 C68.6135894,32.3309389 68.5688132,32.1991506 68.504348,32.0794297 C68.1559824,31.432238 67.8044411,30.7869517 67.4665549,30.1343615 C67.3690634,29.9460472 67.2604571,29.8577649 67.0321299,29.8587176 C64.6574002,29.8676093 62.2823528,29.8666566 59.9073055,29.8599878 C59.6999374,29.8593527 59.5935541,29.9292164 59.4989206,30.1130848 C59.1578589,30.7777424 58.7904395,31.4290624 58.4458845,32.0921322 C58.3591901,32.2585347 58.2636038,32.3344321 58.0673504,32.3312565 C57.3442614,32.3198242 56.6211724,32.3268106 55.8301251,32.3268106 Z M66.1831593,27.8204449 C65.2749315,26.126886 64.3981424,24.4914409 63.4880093,22.7940712 C62.5705723,24.4933463 61.6813982,26.1405411 60.7744407,27.8204449 L66.1831593,27.8204449 Z" id="Combined-Shape" fill="#363636"></path>
                        <path d="M118.869324,32.3266518 C118.083357,32.3266518 117.337722,32.3215708 116.591768,32.3304626 C116.415204,32.3323679 116.352326,32.2323358 116.283733,32.1037232 C115.933462,31.4435115 115.569853,30.7899686 115.229426,30.1246759 C115.128759,29.9274698 115.010626,29.8585588 114.789603,29.8591939 C112.427576,29.867133 110.065548,29.8668154 107.703521,29.859829 C107.485356,29.8591939 107.363094,29.923659 107.261157,30.1227705 C106.921366,30.7880632 106.55871,31.4416061 106.207803,32.1015002 C106.140163,32.2285251 106.080143,32.3326855 105.901356,32.3304626 C105.15699,32.3212532 104.412625,32.3266518 103.648888,32.3266518 C103.696522,32.0500552 103.849904,31.8585652 103.962004,31.6524674 C105.861343,28.1567432 107.768621,24.665465 109.664785,21.168153 C109.796256,20.9255355 109.938206,20.825821 110.221471,20.8347128 C110.93154,20.8575772 111.643515,20.8502733 112.354219,20.8375708 C112.558094,20.8340776 112.673369,20.8940969 112.772766,21.0766951 C114.779123,24.7734361 116.791832,28.4670014 118.802953,32.1612019 C118.820737,32.1939108 118.831216,32.2304305 118.869324,32.3266518 Z M111.254946,22.7961989 C110.368947,24.4332318 109.52836,25.9943673 108.678246,27.5501043 C108.540107,27.8022486 108.616322,27.8346399 108.864338,27.8333697 C110.502006,27.8254306 112.139674,27.8292414 113.777342,27.8276536 C113.8218,27.8276536 113.881502,27.8473424 113.90786,27.7409591 C113.043456,26.1296488 112.166349,24.4948388 111.254946,22.7961989 Z" id="Combined-Shape" fill="#363636"></path>
                        <path d="M54.8702935,23.6174146 C54.7232622,23.4468837 54.6035413,23.3017578 54.4771516,23.1626656 C51.5809848,19.9667201 46.5958941,19.8597017 43.6476472,21.5030858 C41.8254755,22.5186496 40.5958749,23.9781652 40.4704379,26.1502903 C40.3227715,28.7041251 41.5250617,30.5088308 43.7356119,31.6520545 C45.8280289,32.7339888 48.0658893,32.8225886 50.3348709,32.372603 C51.9452285,32.0534531 53.314239,31.2589126 54.466672,30.0925068 C54.7969366,29.7581139 54.7928083,29.7539856 54.3958557,29.5415365 C53.9604779,29.3087634 53.5203368,29.0839294 53.0909928,28.8403593 C52.9090297,28.736834 52.7886736,28.7365164 52.634656,28.9016488 C52.3310666,29.2274675 51.9738091,29.4989832 51.5816199,29.7088917 C49.4215621,30.8638653 47.2113296,30.8797434 44.9928404,29.9162598 C44.1471724,29.5488404 43.4939471,28.9226079 43.1163657,28.0569334 C42.2405293,26.0502582 43.1131901,23.8800385 45.2761059,23.0527891 C47.8925004,22.0521508 50.399336,22.2639647 52.6133793,24.1620337 C52.7194451,24.2528565 52.8055044,24.3379631 52.9773055,24.2747682 C53.5911532,24.0492991 54.2126223,23.8438364 54.8702935,23.6174146" id="Fill-27" fill="#363636"></path>
                        <path d="M68.7172735,8.55150409 C68.7172735,9.74522021 68.7201315,10.9389363 68.7163208,12.1326524 C68.7140978,12.8871801 68.9573504,13.5521553 69.4381395,14.1278954 C70.0580209,14.8700382 70.8674868,15.3317735 71.7626945,15.6550518 C73.2609527,16.1958601 74.8170072,16.2615955 76.3832237,16.1656917 C77.8294018,16.0770919 79.2187362,15.7633405 80.436587,14.9173549 C81.3575172,14.2777848 82.0101075,13.4473597 82.0228099,12.2863525 C82.051073,9.74680802 82.0291612,7.20694595 82.0364651,4.66708388 C82.0371002,4.43240545 81.9373857,4.39683849 81.7392269,4.40033168 C81.2060401,4.40985854 80.671583,4.42478396 80.1396664,4.39588581 C79.8198813,4.37810233 79.7741524,4.50258669 79.7754226,4.7826765 C79.7855846,6.99227394 79.7811387,9.20187137 79.7811387,11.4114688 C79.7811387,12.6826701 79.3244844,13.4111577 78.1183833,13.7842932 C76.3060561,14.3447904 74.4587971,14.3409796 72.6461524,13.7877864 C71.4292542,13.4159211 70.9535461,12.6632988 70.9532285,11.3892395 C70.952911,9.17995958 70.94783,6.97036215 70.9595798,4.76044715 C70.96085,4.48258027 70.9011484,4.38223063 70.6061331,4.39683849 C70.0866014,4.4219259 69.5645293,4.41906784 69.04468,4.39747362 C68.7693536,4.38604138 68.7090168,4.48289783 68.7115573,4.74202855 C68.7239423,6.01164202 68.7172735,7.28157306 68.7172735,8.55150409" id="Fill-29" fill="#363636"></path>
                        <path d="M99.2102261,20.8424613 C97.1409912,20.8424613 95.0720738,20.8475423 93.0025213,20.8364276 C92.7170329,20.8348398 92.5935012,20.8900956 92.6141427,21.2060699 C92.6417706,21.6357315 92.6382775,22.0695214 92.6150954,22.5001357 C92.5995349,22.7935631 92.6805132,22.8872439 92.9898188,22.8837508 C94.4877594,22.86692 95.9860176,22.8761293 97.4836407,22.8761293 C98.0847859,22.8761293 98.0847859,22.8761293 98.0847859,23.4667949 C98.0847859,26.2975439 98.0901844,29.1286104 98.077482,31.9593594 C98.0762117,32.2680298 98.1657642,32.3471028 98.4604619,32.3331301 C98.9542711,32.3096305 99.4522085,32.299786 99.9447474,32.3356706 C100.301687,32.3620282 100.355673,32.2305575 100.354403,31.9098197 C100.342018,29.0155583 100.351545,26.1209793 100.340747,23.2267179 C100.339795,22.9459929 100.403942,22.8659673 100.693241,22.8688253 C102.292484,22.8840683 103.892362,22.8707307 105.491605,22.8818454 C105.740574,22.8834332 105.825363,22.8164276 105.815836,22.5649184 C105.798688,22.1085816 105.794242,21.6500218 105.817107,21.1943201 C105.831715,20.9085142 105.74248,20.8335695 105.456038,20.8354749 C103.374101,20.8484949 101.292481,20.8424613 99.2102261,20.8424613" id="Fill-31" fill="#363636"></path>
                        <path d="M56.0782364,10.1154342 C56.0782364,11.8934646 56.0861755,13.6718127 56.0709325,15.4495256 C56.0680744,15.7677229 56.1217424,15.8814101 56.4764593,15.8744237 C57.7714778,15.8490188 59.0674489,15.8645793 60.3627849,15.8645793 C62.5091875,15.8645793 64.6555901,15.8575929 66.8019926,15.8718832 C67.112886,15.8741062 67.1922765,15.7791551 67.1757633,15.4873155 C67.1528988,15.0821062 67.1500407,14.6734037 67.1763984,14.2685119 C67.1979926,13.9350717 67.1151089,13.8185264 66.7483246,13.8210669 C64.1065251,13.8388504 61.4647256,13.8305937 58.8229261,13.8305937 C58.3291169,13.8305937 58.3291169,13.8305937 58.3291169,13.3186836 C58.3291169,10.4736443 58.3253062,7.62860497 58.3351506,4.78356568 C58.3361033,4.49521925 58.2776719,4.37867394 57.9620151,4.39613986 C57.4555034,4.42440289 56.9458162,4.41709896 56.4383519,4.39836279 C56.1722348,4.3882008 56.0671217,4.43710537 56.0699798,4.74323528 C56.0868106,6.53365068 56.0782364,8.3247012 56.0782364,10.1154342" id="Fill-33" fill="#363636"></path>
                        <path d="M120.619631,26.5753155 C120.619631,28.327941 120.630428,30.080884 120.611057,31.833192 C120.606929,32.2117261 120.678698,32.3431968 121.095339,32.3381158 C123.152507,32.313346 125.209992,32.3266836 127.267477,32.3266836 C128.639028,32.3266836 130.010897,32.3209674 131.382447,32.3320821 C131.630464,32.3343051 131.713665,32.2685697 131.701915,32.01452 C131.681909,31.5581832 131.67524,31.0989883 131.70382,30.6436042 C131.723192,30.3352513 131.617443,30.2730091 131.326557,30.2742794 C128.671737,30.2857116 126.017553,30.2806306 123.363368,30.2806306 C122.855586,30.2806306 122.855586,30.2806306 122.855586,29.7852337 C122.855586,26.9278095 122.850823,24.0700677 122.862255,21.2126435 C122.863525,20.9131824 122.786993,20.8195015 122.484991,20.8353796 C121.990864,20.8611022 121.493245,20.8645953 120.999753,20.8347445 C120.667265,20.8144205 120.610422,20.9376346 120.612645,21.2412241 C120.626935,23.018937 120.619631,24.797285 120.619631,26.5753155" id="Fill-35" fill="#363636"></path>
                        <path d="M90.3752343,26.5922415 C90.3752343,24.7888061 90.3704709,22.9856882 90.3806329,21.1825703 C90.3819031,20.9310611 90.3380796,20.8234075 90.0548141,20.8357925 C89.5098775,20.8589745 88.9630354,20.8497652 88.4171461,20.8386505 C88.2123185,20.8345222 88.1237187,20.8824741 88.1243538,21.1101662 C88.1303875,24.7548269 88.1307051,28.3991702 88.1234011,32.043831 C88.1230836,32.2943875 88.2243859,32.3356706 88.4400106,32.3305896 C88.9604949,32.3185222 89.481932,32.3105832 90.0017812,32.3331301 C90.2923506,32.3458326 90.3860314,32.273746 90.3831734,31.9638053 C90.3669777,30.1733899 90.3752343,28.3826569 90.3752343,26.5922415" id="Fill-37" fill="#363636"></path>
                        <path d="M31.9197594,32.2604401 C30.8435413,31.5433848 29.7631949,30.8320455 28.6914226,30.1080038 C26.3576584,28.5306727 24.0286576,26.9463551 21.6967987,25.3661658 C19.669482,23.9920744 17.6412125,22.6202059 15.6138957,21.2464321 C15.1874098,20.9574505 14.989251,20.4842829 14.7142422,20.0806614 C12.6345277,17.0298419 10.5738669,13.9660022 8.50494948,10.9078787 C7.1540401,8.91104796 5.79868484,6.91739278 4.44682277,4.92119711 C4.37600642,4.81703673 4.3182101,4.7039846 4.25438011,4.59506079 L4.24929912,4.59982422 C4.42237049,4.57600706 4.52875381,4.70271435 4.65038011,4.78496295 C9.95589094,8.37246255 15.259814,11.9621851 20.5659599,15.5484144 C20.7504635,15.6735339 20.885745,15.8342204 21.0067362,16.0133254 C23.6774338,19.9637986 26.3474964,23.9149068 29.0188292,27.8647448 C29.9213408,29.1988234 30.8276632,30.5300439 31.7295397,31.8644401 C31.8121059,31.986384 31.9388132,32.0927673 31.914996,32.2655211 L31.9197594,32.2604401 Z" id="Fill-39" fill="#363636"></path>
                        <path d="M35.2513992,1.43287217 C34.3495227,3.26139503 33.4508218,5.09150569 32.5416414,6.9162178 C32.4336702,7.13247763 32.4304946,7.27823865 32.5864176,7.48719455 C35.4076398,11.2690422 36.5946871,15.5240574 36.1662957,20.2128626 C35.8868411,23.2738441 34.851906,26.0823638 33.1281787,28.6320702 C33.0722877,28.714954 33.0094104,28.7930743 32.9198579,28.9140654 C32.4930544,28.2738601 32.1126149,27.6288914 31.6559605,27.0433068 C31.3276013,26.6222194 31.3450672,26.3154544 31.6016574,25.8470502 C36.234254,17.3954512 32.1402428,6.87779278 23.0058852,3.84126351 C18.6933912,2.40778797 14.5085572,2.85078717 10.5244225,5.05054018 C10.2754537,5.18804459 10.1173078,5.18296359 9.8931089,5.01211516 C9.22051227,4.49925229 8.52759166,4.01274707 7.8241915,3.50274226 C10.4272484,1.73900209 13.248153,0.686283561 16.3412083,0.403335686 C21.1074986,-0.0333122694 25.4069726,1.19501812 29.2221642,4.08959711 C29.3996815,4.22424346 29.5086053,4.16231885 29.6578595,4.08769174 C31.3815868,3.2305915 33.106902,2.37603176 34.8325347,1.52274226 C34.9446342,1.46716889 35.0646727,1.42747362 35.1809004,1.38047442 C35.2044,1.39794034 35.2278996,1.41540626 35.2513992,1.43287217" id="Fill-41" fill="#363636"></path>
                        <path d="M28.4028539,33.3762582 C26.6905588,34.5537787 24.8893463,35.4156423 22.933481,35.9129447 C17.1865588,37.3746832 11.9029597,36.3749976 7.1211089,32.8443416 C6.91596375,32.6928645 6.77655397,32.6807971 6.55553071,32.7916263 C4.81211451,33.6677803 3.06234707,34.5305966 1.31416744,35.3969062 C1.21477049,35.4464459 1.11410329,35.4937626 1.00486191,35.5464779 C0.951193905,35.401352 1.05154354,35.3181508 1.09695493,35.2260577 C1.96675766,33.4651756 2.83719551,31.7049286 3.71843047,29.9497626 C3.82703673,29.7331852 3.8289421,29.5899647 3.67270152,29.3819615 C1.1249004,25.996749 -0.097078749,22.1701251 0.00612894948,17.9449607 C0.092505854,14.3990617 1.14808244,11.1421443 3.14745373,8.19961347 C3.29162694,7.98684683 3.35704475,7.93730714 3.51773119,8.19103929 C3.93786592,8.85601443 4.37800706,9.50828709 4.82799262,10.1535734 C4.95882823,10.340935 4.94834868,10.4768516 4.83815461,10.665166 C3.32147779,13.2621893 2.64729334,16.0691211 2.73906881,19.0716712 C2.94865982,25.9497498 8.08300465,32.0748885 14.8346935,33.4753376 C18.6918034,34.2755942 22.3475788,33.7233536 25.7861418,31.790988 C25.9579429,31.6944491 26.0706775,31.6658685 26.2485123,31.8008324 C26.9157103,32.3063913 27.601327,32.7878156 28.2799573,33.2787666 C28.3107609,33.3013136 28.339659,33.3260834 28.4028539,33.3762582" id="Fill-44" fill="#363636"></path>
                        <path d="" id="Fill-46" fill="#363636"></path>
                        <path d="M51.1615804,13.6005517 C50.7458916,13.7793392 50.3076558,13.8301492 49.8608459,13.8304667 C47.5896414,13.8311018 45.3187545,13.8269735 43.0478675,13.8358653 C42.7976285,13.836818 42.6896574,13.7958524 42.6982316,13.5109992 C42.7195083,12.8009302 42.7169678,12.0899086 42.6988667,11.3798396 C42.6921979,11.1207089 42.7814329,11.067676 43.0208747,11.069899 C44.2260231,11.0810136 45.431489,11.07498 46.6366374,11.07498 C47.7023759,11.07498 48.7681145,11.0762502 49.8338531,11.0743448 C50.2543054,11.0737097 50.6712645,11.1057835 51.0717103,11.238842 C51.6547545,11.4322374 51.96406,11.8498316 51.9913703,12.4535172 C52.0148699,12.9651099 51.7328747,13.3544411 51.1615804,13.6005517 M42.697914,8.61609623 C42.7236366,7.99462711 42.7198258,7.37093504 42.6982316,6.74946592 C42.6887047,6.47223416 42.7842909,6.41729591 43.0411987,6.42015397 C44.2222123,6.43317402 45.4035435,6.42587009 46.5848747,6.42587009 C47.6896735,6.42587009 48.7947897,6.42459984 49.899906,6.4274579 C50.0771057,6.42777546 50.2568459,6.43158621 50.4311875,6.45984924 C51.2343022,6.5894146 51.593465,6.97938091 51.5937825,7.70564555 C51.5937825,8.39221492 51.1409389,8.8949158 50.4048298,9.00955573 C50.2050832,9.04099439 50.0005732,9.05083881 49.7982861,9.05083881 C47.5753511,9.05401443 45.3527336,9.04385245 43.1297986,9.06195349 C42.7687304,9.06481155 42.6836237,8.95461748 42.697914,8.61609623 M52.48772,9.93842502 C52.5861642,9.8580818 52.6531698,9.80377867 52.7198579,9.74884042 C54.1577793,8.55957017 54.192076,6.53479391 52.7833703,5.30138252 C52.0072484,4.62148196 51.0571025,4.41157338 50.0602749,4.40776263 C46.9754762,4.39664796 43.8906775,4.40744507 40.8058787,4.39728308 C40.5261065,4.39664796 40.4457633,4.45952526 40.446716,4.75104731 C40.4581482,8.33124298 40.4575131,11.9111211 40.4479862,15.4913168 C40.4470335,15.7806159 40.5076879,15.873344 40.8169934,15.8720738 C43.9148122,15.8593713 47.0123134,15.8698508 50.1098146,15.860324 C50.8725989,15.858101 51.6287144,15.7606095 52.3508507,15.4941748 C53.2870239,15.1486672 53.9764513,14.5592719 54.1806438,13.5344988 C54.4683551,12.0905437 54.054254,10.8072751 52.48772,9.93842502" id="Fill-48" fill="#363636"></path>
                        <path d="M113.605009,13.6005517 C113.18932,13.7793392 112.751085,13.8301492 112.304275,13.8304667 C110.03307,13.8311018 107.762183,13.8269735 105.491296,13.8358653 C105.241057,13.836818 105.133086,13.7958524 105.14166,13.5109992 C105.162937,12.8009302 105.160396,12.0899086 105.142295,11.3798396 C105.135627,11.1207089 105.224862,11.067676 105.464303,11.069899 C106.669452,11.0810136 107.874918,11.07498 109.080066,11.07498 C110.145805,11.07498 111.211543,11.0762502 112.277282,11.0743448 C112.697734,11.0737097 113.114693,11.1057835 113.515139,11.238842 C114.098183,11.4322374 114.407489,11.8498316 114.434799,12.4535172 C114.458299,12.9651099 114.176303,13.3544411 113.605009,13.6005517 M105.141343,8.61609623 C105.167065,7.99462711 105.163255,7.37093504 105.14166,6.74946592 C105.132133,6.47223416 105.22772,6.41729591 105.484627,6.42015397 C106.665641,6.43317402 107.846972,6.42587009 109.028303,6.42587009 C110.133102,6.42587009 111.238218,6.42459984 112.343335,6.4274579 C112.520534,6.42777546 112.700275,6.43158621 112.874616,6.45984924 C113.677731,6.5894146 114.036894,6.97938091 114.037211,7.70564555 C114.037211,8.39221492 113.584368,8.8949158 112.848259,9.00955573 C112.648512,9.04099439 112.444002,9.05083881 112.241715,9.05083881 C110.01878,9.05401443 107.796162,9.04385245 105.573227,9.06195349 C105.212159,9.06481155 105.127052,8.95461748 105.141343,8.61609623 M114.931149,9.93842502 C115.029593,9.8580818 115.096599,9.80377867 115.163287,9.74884042 C116.601208,8.55957017 116.635505,6.53479391 115.226799,5.30138252 C114.450677,4.62148196 113.500531,4.41157338 112.503704,4.40776263 C109.418905,4.39664796 106.334106,4.40744507 103.249307,4.39728308 C102.969535,4.39664796 102.889192,4.45952526 102.890145,4.75104731 C102.901577,8.33124298 102.900942,11.9111211 102.891415,15.4913168 C102.890462,15.7806159 102.951117,15.873344 103.260422,15.8720738 C106.358241,15.8593713 109.455742,15.8698508 112.553243,15.860324 C113.316028,15.858101 114.072143,15.7606095 114.794279,15.4941748 C115.730453,15.1486672 116.41988,14.5592719 116.624073,13.5344988 C116.911784,12.0905437 116.497683,10.8072751 114.931149,9.93842502" id="Fill-48-Copy" fill="#363636"></path>
                        <path d="M92.4049646,10.8517973 C93.1121755,9.8749761 93.8092244,8.91117498 94.5062733,7.94769142 C95.2947801,6.85845325 96.0886855,5.77302582 96.8667128,4.67680128 C97.0064401,4.48023031 97.1452148,4.39321828 97.3929132,4.39734659 C98.3065395,4.4132247 99.2211185,4.41195445 100.135062,4.39829928 C100.384031,4.39480609 100.45453,4.46594002 100.453895,4.71808436 C100.445638,8.32400257 100.445321,11.9299208 100.45453,15.535839 C100.455165,15.8067195 100.376092,15.8797588 100.112515,15.8702319 C99.5675788,15.8505431 99.0207368,15.8572119 98.475165,15.868009 C98.2846277,15.8721373 98.1934874,15.8251381 98.2055548,15.6187227 C98.2144465,15.4681982 98.186501,15.3154508 98.1855484,15.1636561 C98.1725283,12.3710146 98.1607785,9.57837306 98.1490287,6.78573152 C98.1487111,6.71459759 98.1490287,6.64346367 98.1490287,6.47070986 C97.3554409,7.54438749 96.619967,8.53772189 95.886716,9.53200898 C94.7943022,11.0121662 93.6964898,12.488195 92.6183663,13.9785142 C92.4271939,14.2427259 92.3551073,14.2043009 92.1855291,13.9702576 C90.437667,11.5551974 88.6799605,9.14775878 86.9241594,6.73841476 C86.8517553,6.63870024 86.7742701,6.54247891 86.6288266,6.35289431 L86.6288266,6.84448051 C86.6288266,9.71397209 86.6224754,12.5834637 86.6367657,15.4529553 C86.6383535,15.7860779 86.5640439,15.8956369 86.2201241,15.8727724 C85.7275852,15.8400635 85.2293302,15.8448269 84.7358387,15.8715022 C84.4287561,15.8880154 84.3582573,15.7873482 84.3595275,15.4907451 C84.3709597,12.8498983 84.3661963,10.2087339 84.3661963,7.56788709 C84.3661963,6.64092318 84.3808042,5.7136417 84.3582573,4.78731291 C84.3503182,4.45958877 84.4589245,4.38908998 84.7653719,4.39639391 C85.6285059,4.41703545 86.4925925,4.41671788 87.3557264,4.39639391 C87.6440728,4.38940754 87.8149213,4.48435862 87.9800536,4.71617899 C89.3878066,6.68760481 90.8079445,8.65045646 92.2245893,10.615531 C92.2763519,10.6873001 92.3319253,10.7562111 92.4049646,10.8517973" id="Fill-50" fill="#363636"></path>
                        <path d="M163.285217,6.69141556 C162.612303,7.023268 161.97051,7.32526961 161.34396,7.65616937 C161.124207,7.77207955 161.045451,7.61774435 160.931764,7.51866496 C159.0175,5.85749735 155.931431,5.5399352 153.731995,6.78033296 C151.587816,7.98992719 150.963488,10.4897764 152.362032,12.3154412 C153.002872,13.1522175 153.867594,13.6698438 154.88157,13.9184949 C156.445246,14.30211 158.001301,14.309414 159.503687,13.6568237 C160.418584,13.2595535 161.071809,12.5793354 161.498613,11.6212504 C159.902545,11.6212504 158.356653,11.6085479 156.811078,11.6304597 C156.448739,11.6358582 156.323937,11.5561501 156.356011,11.179839 C156.393166,10.7384276 156.372524,10.2913001 156.360457,9.8473482 C156.355376,9.65172991 156.413172,9.5821838 156.61673,9.58250136 C159.093079,9.58853504 161.569111,9.59044042 164.045461,9.58059599 C164.312848,9.57932574 164.316977,9.70317498 164.319835,9.90450938 C164.350321,12.2217604 163.381439,14.0407564 161.353487,15.1045896 C158.288694,16.7124067 155.134032,16.6876369 152.127036,14.9391397 C149.378853,13.341167 148.820261,10.5091477 149.679902,8.13981652 C150.26898,6.51675638 151.493817,5.43450457 153.044791,4.80731933 C156.218824,3.52373312 159.306799,3.6396433 162.183277,5.6783923 C162.502427,5.90449655 162.780929,6.18839711 163.074991,6.44911564 C163.139774,6.50659439 163.189949,6.58058637 163.285217,6.69141556" id="Fill-54" fill="#363636"></path>
                        <path d="M124.936793,15.8644205 C123.019353,15.8644205 121.10223,15.8558464 119.185108,15.8723596 C118.860242,15.8755352 118.794824,15.7805841 118.795776,15.4719137 C118.807209,11.904103 118.807209,8.33629222 118.795459,4.76848148 C118.794506,4.46044619 118.885011,4.3966162 119.175263,4.39756889 C122.895504,4.40677819 126.615744,4.40709575 130.335985,4.39693376 C130.636399,4.39598107 130.730715,4.47568917 130.712296,4.77610297 C130.685938,5.19337963 130.675459,5.61637241 130.714519,6.0317437 C130.748816,6.39471724 130.601467,6.43377739 130.290574,6.43250714 C127.344867,6.42139246 124.399478,6.43314226 121.453772,6.41662903 C121.105406,6.41472366 121.031732,6.51570842 121.046657,6.838034 C121.073015,7.40805806 121.069204,7.98094018 121.04761,8.55159936 C121.036813,8.82883111 121.134304,8.8834518 121.391847,8.88218156 C123.385185,8.87201957 125.37884,8.88472205 127.37186,8.86852638 C127.702442,8.86598589 127.819622,8.93680225 127.79263,9.28358011 C127.758968,9.72530906 127.76913,10.1724366 127.790407,10.6160709 C127.802792,10.8742489 127.711969,10.9288696 127.469034,10.9279169 C125.475696,10.9183901 123.482041,10.9349033 121.489021,10.9120388 C121.105406,10.9079105 121.030144,11.022868 121.045704,11.3756796 C121.074602,12.0473235 121.080001,12.7224606 121.043799,13.3934694 C121.023157,13.779625 121.156851,13.840597 121.50871,13.8390091 C124.581441,13.8247188 127.654173,13.8361511 130.726586,13.8224959 C131.059391,13.8209081 131.172761,13.8945825 131.146086,14.2388199 C131.112742,14.6678464 131.121951,15.1025889 131.144181,15.5328856 C131.158153,15.8050364 131.066695,15.8714069 130.802801,15.8701366 C128.847254,15.8593395 126.892023,15.8644205 124.936793,15.8644205" id="Fill-57" fill="#363636"></path>
                        <path d="M54.8702935,23.6174146 C54.2126223,23.8438364 53.5911532,24.0492991 52.9773055,24.2747682 C52.8055044,24.3379631 52.7194451,24.2528565 52.6133793,24.1620337 C50.399336,22.2639647 47.8925004,22.0521508 45.2761059,23.0527891 C43.1131901,23.8800385 42.2405293,26.0502582 43.1163657,28.0569334 C43.4939471,28.9226079 44.1471724,29.5488404 44.9928404,29.9162598 C47.2113296,30.8797434 49.4215621,30.8638653 51.5816199,29.7088917 C51.9738091,29.4989832 52.3310666,29.2274675 52.634656,28.9016488 C52.7886736,28.7365164 52.9090297,28.736834 53.0909928,28.8403593 C53.5203368,29.0839294 53.9604779,29.3087634 54.3958557,29.5415365 C54.7928083,29.7539856 54.7969366,29.7581139 54.466672,30.0925068 C53.314239,31.2589126 51.9452285,32.0534531 50.3348709,32.372603 C48.0658893,32.8225886 45.8280289,32.7339888 43.7356119,31.6520545 C41.5250617,30.5088308 40.3227715,28.7041251 40.4704379,26.1502903 C40.5958749,23.9781652 41.8254755,22.5186496 43.6476472,21.5030858 C46.5958941,19.8597017 51.5809848,19.9667201 54.4771516,23.1626656 C54.6035413,23.3017578 54.7232622,23.4468837 54.8702935,23.6174146" id="Fill-63" fill="#363636"></path>
                        <path d="M68.7172735,8.55150409 C68.7172735,7.28157306 68.7239423,6.01164202 68.7115573,4.74202855 C68.7090168,4.48289783 68.7693536,4.38604138 69.04468,4.39747362 C69.5645293,4.41906784 70.0866014,4.4219259 70.6061331,4.39683849 C70.9011484,4.38223063 70.96085,4.48258027 70.9595798,4.76044715 C70.94783,6.97036215 70.952911,9.17995958 70.9532285,11.3892395 C70.9535461,12.6632988 71.4292542,13.4159211 72.6461524,13.7877864 C74.4587971,14.3409796 76.3060561,14.3447904 78.1183833,13.7842932 C79.3244844,13.4111577 79.7811387,12.6826701 79.7811387,11.4114688 C79.7811387,9.20187137 79.7855846,6.99227394 79.7754226,4.7826765 C79.7741524,4.50258669 79.8198813,4.37810233 80.1396664,4.39588581 C80.671583,4.42478396 81.2060401,4.40985854 81.7392269,4.40033168 C81.9373857,4.39683849 82.0371002,4.43240545 82.0364651,4.66708388 C82.0291612,7.20694595 82.051073,9.74680802 82.0228099,12.2863525 C82.0101075,13.4473597 81.3575172,14.2777848 80.436587,14.9173549 C79.2187362,15.7633405 77.8294018,16.0770919 76.3832237,16.1656917 C74.8170072,16.2615955 73.2609527,16.1958601 71.7626945,15.6550518 C70.8674868,15.3317735 70.0580209,14.8700382 69.4381395,14.1278954 C68.9573504,13.5521553 68.7140978,12.8871801 68.7163208,12.1326524 C68.7201315,10.9389363 68.7172735,9.74522021 68.7172735,8.55150409" id="Fill-65" fill="#363636"></path>
                        <path d="M99.2102261,20.8424613 C101.292481,20.8424613 103.374101,20.8484949 105.456038,20.8354749 C105.74248,20.8335695 105.831715,20.9085142 105.817107,21.1943201 C105.794242,21.6500218 105.798688,22.1085816 105.815836,22.5649184 C105.825363,22.8164276 105.740574,22.8834332 105.491605,22.8818454 C103.892362,22.8707307 102.292484,22.8840683 100.693241,22.8688253 C100.403942,22.8659673 100.339795,22.9459929 100.340747,23.2267179 C100.351545,26.1209793 100.342018,29.0155583 100.354403,31.9098197 C100.355673,32.2305575 100.301687,32.3620282 99.9447474,32.3356706 C99.4522085,32.299786 98.9542711,32.3096305 98.4604619,32.3331301 C98.1657642,32.3471028 98.0762117,32.2680298 98.077482,31.9593594 C98.0901844,29.1286104 98.0847859,26.2975439 98.0847859,23.4667949 C98.0847859,22.8761293 98.0847859,22.8761293 97.4836407,22.8761293 C95.9860176,22.8761293 94.4877594,22.86692 92.9898188,22.8837508 C92.6805132,22.8872439 92.5995349,22.7935631 92.6150954,22.5001357 C92.6382775,22.0695214 92.6417706,21.6357315 92.6141427,21.2060699 C92.5935012,20.8900956 92.7170329,20.8348398 93.0025213,20.8364276 C95.0720738,20.8475423 97.1409912,20.8424613 99.2102261,20.8424613" id="Fill-67" fill="#363636"></path>
                        <path d="M56.0782364,10.1154342 C56.0782364,8.3247012 56.0868106,6.53365068 56.0699798,4.74323528 C56.0671217,4.43710537 56.1722348,4.3882008 56.4383519,4.39836279 C56.9458162,4.41709896 57.4555034,4.42440289 57.9620151,4.39613986 C58.2776719,4.37867394 58.3361033,4.49521925 58.3351506,4.78356568 C58.3253062,7.62860497 58.3291169,10.4736443 58.3291169,13.3186836 C58.3291169,13.8305937 58.3291169,13.8305937 58.8229261,13.8305937 C61.4647256,13.8305937 64.1065251,13.8388504 66.7483246,13.8210669 C67.1151089,13.8185264 67.1979926,13.9350717 67.1763984,14.2685119 C67.1500407,14.6734037 67.1528988,15.0821062 67.1757633,15.4873155 C67.1922765,15.7791551 67.112886,15.8741062 66.8019926,15.8718832 C64.6555901,15.8575929 62.5091875,15.8645793 60.3627849,15.8645793 C59.0674489,15.8645793 57.7714778,15.8490188 56.4764593,15.8744237 C56.1217424,15.8814101 56.0680744,15.7677229 56.0709325,15.4495256 C56.0861755,13.6718127 56.0782364,11.8934646 56.0782364,10.1154342" id="Fill-69" fill="#363636"></path>
                        <path d="M120.619631,26.5753155 C120.619631,24.797285 120.626935,23.018937 120.612645,21.2412241 C120.610422,20.9376346 120.667265,20.8144205 120.999753,20.8347445 C121.493245,20.8645953 121.990864,20.8611022 122.484991,20.8353796 C122.786993,20.8195015 122.863525,20.9131824 122.862255,21.2126435 C122.850823,24.0700677 122.855586,26.9278095 122.855586,29.7852337 C122.855586,30.2806306 122.855586,30.2806306 123.363368,30.2806306 C126.017553,30.2806306 128.671737,30.2857116 131.326557,30.2742794 C131.617443,30.2730091 131.723192,30.3352513 131.70382,30.6436042 C131.67524,31.0989883 131.681909,31.5581832 131.701915,32.01452 C131.713665,32.2685697 131.630464,32.3343051 131.382447,32.3320821 C130.010897,32.3209674 128.639028,32.3266836 127.267477,32.3266836 C125.209992,32.3266836 123.152507,32.313346 121.095339,32.3381158 C120.678698,32.3431968 120.606929,32.2117261 120.611057,31.833192 C120.630428,30.080884 120.619631,28.327941 120.619631,26.5753155" id="Fill-71" fill="#363636"></path>
                        <path d="M90.3752343,26.5922415 C90.3752343,28.3826569 90.3669777,30.1733899 90.3831734,31.9638053 C90.3860314,32.273746 90.2923506,32.3458326 90.0017812,32.3331301 C89.481932,32.3105832 88.9604949,32.3185222 88.4400106,32.3305896 C88.2243859,32.3356706 88.1230836,32.2943875 88.1234011,32.043831 C88.1307051,28.3991702 88.1303875,24.7548269 88.1243538,21.1101662 C88.1237187,20.8824741 88.2123185,20.8345222 88.4171461,20.8386505 C88.9630354,20.8497652 89.5098775,20.8589745 90.0548141,20.8357925 C90.3380796,20.8234075 90.3819031,20.9310611 90.3806329,21.1825703 C90.3704709,22.9856882 90.3752343,24.7888061 90.3752343,26.5922415" id="Fill-73" fill="#363636"></path>
                        <path d="M4.26076657,4.60309511 C4.24925494,4.59657185 4.23582471,4.5919672 4.22699913,4.58314162 C4.22239447,4.57853697 4.22546424,4.56587418 4.22546424,4.5570486 C4.23505727,4.57431604 4.24465029,4.59158348 4.25462703,4.6084672 C4.25462703,4.60885092 4.26076657,4.60309511 4.26076657,4.60309511" id="Fill-75" fill="#363636"></path>
                        <path d="M31.915123,32.2666114 C31.9320067,32.2762044 31.9488905,32.2861812 31.9661579,32.2957742 C31.9573323,32.2953905 31.9450532,32.2984602 31.9400649,32.2942393 C31.9312393,32.28503 31.9270184,32.2719835 31.9208788,32.2604719 L31.915123,32.2666114 Z" id="Fill-77" fill="#363636"></path>
                        <path d="M35.1809957,1.3882097 C35.2124608,1.37362831 35.2435422,1.35866319 35.2750073,1.3440818 L35.265798,1.45152366 C35.2377864,1.43041901 35.209391,1.40931435 35.1809957,1.3882097" id="Fill-79" fill="#363636"></path>
                    </g>
                </g>
            </g>
        </g>
    </g>
</svg>