<?xml version="1.0" encoding="UTF-8"?>
<svg width="207px" height="36px" viewBox="0 0 207 36" version="1.1" xmlns="http://www.w3.org/2000/svg" xmlns:xlink="http://www.w3.org/1999/xlink">
    <!-- Generator: Sketch 46.2 (44496) - http://www.bohemiancoding.com/sketch -->
    <title>Group 23</title>
    <desc>Created with Sketch.</desc>
    <defs></defs>
    <g id="Kreditech-Homepage" stroke="none" stroke-width="1" fill="none" fill-rule="evenodd">
        <g transform="translate(-1325.000000, -4416.000000)" id="section-6-partners" fill="#363636">
            <g transform="translate(0.000000, 4076.000000)">
                <g id="Group-18" transform="translate(389.000000, 275.000000)">
                    <g id="Group-23" transform="translate(936.746094, 65.217391)">
                        <path d="M19.8778288,15.7897967 L19.8778288,17.9548635 L24.8628221,17.9548635 C25.5476515,17.9548635 26.6930528,17.8680542 26.6930528,16.8611344 C26.6930528,15.8111545 25.6582301,15.7897967 24.8628221,15.7897967 L19.8778288,15.7897967 Z M24.8628221,13.5124288 C26.9827619,13.5124288 28.9904007,14.2995692 28.9904007,16.8611344 C28.9904007,19.0282682 27.5118856,19.8150642 26.4302134,20.2088067 L29.320414,24.8520742 L26.4302134,24.8520742 L23.5400127,20.230509 L19.8778288,20.230509 L19.8778288,24.8520742 L17.5804809,24.8520742 L17.5804809,13.5124288 L24.8628221,13.5124288 Z" id="Fill-2"></path>
                        <polygon id="Fill-4" points="43.5952495 13.5131522 43.5952495 15.7898311 35.7421023 15.7898311 35.7421023 17.8460418 39.8896609 17.8460418 39.8896609 20.1234097 35.7421023 20.1234097 35.7421023 22.5747408 43.8615338 22.5747408 43.8615338 24.8521087 33.4478548 24.8521087 33.4478548 13.5131522"></polygon>
                        <path d="M59.3288612,19.1807702 C59.3288612,17.2096465 57.4500585,15.4379776 54.6067074,15.4379776 C51.7585334,15.4379776 49.8845535,17.2316933 49.8845535,19.1807702 C49.8845535,21.151205 51.7585334,22.9232184 54.6067074,22.9232184 C57.4500585,22.9232184 59.3288612,21.151205 59.3288612,19.1807702 M47.5906505,19.1807702 C47.5906505,16.0074057 50.1043328,13.1623321 54.6067074,13.1623321 C59.1280284,13.1623321 61.6210418,15.9870813 61.6210418,19.1807702 C61.6210418,22.3534458 59.0825569,25.2002418 54.6067074,25.2002418 C50.1260351,25.2002418 47.5906505,22.3534458 47.5906505,19.1807702" id="Fill-6"></path>
                        <path d="M65.9899298,21.1946786 C67.9775886,22.4644378 69.8746488,22.9232873 71.8791873,22.9232873 C73.0294114,22.9232873 74.9719431,22.6380565 74.9719431,21.3689863 C74.9719431,20.4516318 73.9557224,20.2087722 73.2505686,20.1884478 L69.8312441,20.0795916 C67.0281973,20.0124177 65.6599164,18.3919763 65.6599164,16.6437321 C65.6599164,14.9561167 66.9158963,13.162401 71.0217726,13.162401 C74.0225518,13.162401 75.854505,14.2995348 76.537612,14.650906 L75.5010669,16.663712 C74.5968027,16.2048625 72.9408796,15.4380465 70.6686789,15.4380465 C69.4561037,15.4380465 67.9541639,15.700886 67.9541639,16.7071167 C67.9541639,17.5831334 69.2132441,17.8025682 69.983505,17.8025682 L72.9608595,17.9114244 C75.5882207,17.9765314 77.2658462,19.0950632 77.2658462,21.4799094 C77.2658462,23.5137288 75.6533278,25.2003107 71.8791873,25.2003107 C68.7929766,25.2003107 66.5207759,24.4331502 64.9299599,23.2309094 L65.9899298,21.1946786 Z" id="Fill-8"></path>
                        <path d="M126.44559,21.9182967 C124.878199,23.6031562 122.914309,25.2001729 118.171831,25.2001729 C113.692881,25.2001729 109.454724,21.8077181 109.454724,16.7724304 C109.454724,11.9355642 113.227142,8.08425987 118.127048,8.08425987 C122.651125,8.08425987 125.385965,10.665805 126.181028,11.4326211 L124.39248,12.9431729 C123.644266,12.3306846 121.544306,10.4474037 118.146684,10.4474037 C115.060818,10.4474037 111.840948,12.6803334 111.840948,16.7724304 C111.840948,19.7046579 114.220283,22.8359957 118.745048,22.8359957 C122.274607,22.8359957 124.128263,21.0643268 124.856841,20.2086344 L126.44559,21.9182967 Z" id="Fill-10"></path>
                        <path d="M133.151889,20.1871388 L137.564354,20.1871388 L135.358983,15.7230017 L133.151889,20.1871388 Z M133.815361,13.5124632 L136.859545,13.5124632 L142.462194,24.8521087 L139.85998,24.8521087 L138.711478,22.4641622 L132.02509,22.4641622 L130.881411,24.8521087 L128.27403,24.8521087 L133.815361,13.5124632 Z" id="Fill-12"></path>
                        <path d="M148.264332,18.4803702 L152.832502,18.4803702 C153.71472,18.4803702 154.664111,18.3718585 154.664111,17.0993435 C154.664111,15.8967582 153.649268,15.7896244 152.832502,15.7896244 L148.264332,15.7896244 L148.264332,18.4803702 Z M152.832502,13.512601 C155.060954,13.512601 156.956636,14.476805 156.956636,17.0993435 C156.956636,19.6412732 155.193235,20.7580826 152.832502,20.7580826 L148.264332,20.7580826 L148.264332,24.8522465 L145.972151,24.8522465 L145.972151,13.512601 L152.832502,13.512601 Z" id="Fill-14"></path>
                        <polygon id="Fill-16" points="161.149528 24.8522809 163.445154 24.8522809 163.445154 13.5126355 161.149528 13.5126355"></polygon>
                        <polygon id="Fill-18" points="178.470374 13.5131522 178.470374 15.7898311 174.255641 15.7898311 174.255641 24.8521087 171.961738 24.8521087 171.961738 15.7898311 167.748728 15.7898311 167.748728 13.5131522"></polygon>
                        <path d="M184.982557,20.1871388 L189.391577,20.1871388 L187.187928,15.7230017 L184.982557,20.1871388 Z M185.643962,13.5124632 L188.682979,13.5124632 L194.291139,24.8521087 L191.688581,24.8521087 L190.540423,22.4641622 L183.855413,22.4641622 L182.70829,24.8521087 L180.102975,24.8521087 L185.643962,13.5124632 Z" id="Fill-19"></path>
                        <polygon id="Fill-20" points="199.189082 13.5131522 199.189082 22.5747408 205.764547 22.5747408 205.764547 24.8521087 196.892768 24.8521087 196.892768 13.5131522"></polygon>
                        <path d="M97.2978649,0.340761204 L98.8283967,0.342483612 C95.5899251,0.342483612 92.8671425,2.51857391 92.0600221,5.47388161 L89.2283833,14.7810856 L89.2235605,14.793487 C88.6389753,16.5651559 86.9630722,17.8442161 84.9802361,17.8442161 L84.5017512,17.8442161 L83.5888749,17.8442161 L81.6163732,17.8411157 C83.5957645,17.8411157 85.2751124,16.5634334 85.8579753,14.793487 L85.862798,14.7783298 L88.6927144,5.47388161 C89.5015572,2.5151291 92.2257177,0.340761204 95.4607445,0.340761204 L96.3853331,0.340761204 L97.2978649,0.340761204 Z" id="Fill-21"></path>
                        <path d="M94.4461428,17.7755953 C96.072096,17.4876087 97.3931829,16.3256722 97.9006043,14.794796 L97.9040492,14.7810167 L100.735688,5.47656856 C101.541086,2.51781605 104.265246,0.342414716 107.498895,0.342414716 L105.971808,0.342414716 L105.060655,0.342414716 L104.13641,0.342414716 C100.901384,0.342414716 98.1772231,2.5150602 97.3697582,5.4720903 L94.536397,14.7765385 L94.5329522,14.7910067 C93.9490559,16.5633645 92.269708,17.8424247 90.2916946,17.8424247 L92.2628184,17.8424247 L93.1767281,17.8424247 L93.6576244,17.8424247 L93.6910391,17.8424247 L95.8895207,17.8424247 L96.0304137,17.8424247 C99.6302465,17.8424247 102.547317,20.7377926 102.547317,24.3062776 C102.547317,25.936709 101.939307,27.4255585 100.938243,28.5630368 L95.7975441,33.77401 L95.7841094,33.7874448 C94.948397,34.664495 93.8315876,35.2773278 92.5756077,35.4747157 L92.5521829,35.4816054 L93.9738585,35.4816054 L94.4495876,35.4816054 L94.7458418,35.4816054 C96.3652498,35.4816054 97.8220625,34.8050435 98.8551629,33.7199264 L98.8685977,33.7064916 L104.007574,28.4986187 C105.008982,27.360796 105.620437,25.8702241 105.620437,24.2391037 C105.620437,20.6688963 102.703367,17.7755953 99.1031896,17.7755953 L98.9622967,17.7755953 L96.4975308,17.7755953 L96.0200793,17.7755953 L94.4578552,17.7755953 L94.4461428,17.7755953 Z" id="Fill-22"></path>
                        <polygon id="Fill-1" points="10.5005227 8.43838696 2.3793689 17.0394037 2.3793689 8.43838696 3.44481605e-05 8.43838696 3.44481605e-05 13.3320926 3.44481605e-05 24.8560358 2.3793689 24.8560358 2.3793689 20.4752632 6.6847 15.9439522 11.7799274 24.8560358 14.5612719 24.8560358 8.38437224 14.1726278 13.810991 8.43838696"></polygon>
                    </g>
                </g>
            </g>
        </g>
    </g>
</svg>