<?xml version="1.0" encoding="UTF-8"?>
<svg width="86px" height="44px" viewBox="0 0 86 44" version="1.1" xmlns="http://www.w3.org/2000/svg" xmlns:xlink="http://www.w3.org/1999/xlink">
    <!-- Generator: Sketch 46.2 (44496) - http://www.bohemiancoding.com/sketch -->
    <title>payu logo</title>
    <desc>Created with Sketch.</desc>
    <defs></defs>
    <g id="Kreditech-Homepage" stroke="none" stroke-width="1" fill="none" fill-rule="evenodd">
        <g transform="translate(-446.000000, -4409.000000)" id="section-6-partners" fill-rule="nonzero" fill="#363636">
            <g transform="translate(0.000000, 4076.000000)">
                <g id="Group-18" transform="translate(389.000000, 275.000000)">
                    <g id="payu-logo" transform="translate(57.000000, 58.500000)">
                        <path d="M9.91413655,10.80701 L4.44223923,10.80701 C1.52977775,10.80701 0.20593162,12.1026733 0.20593162,15.0473627 L0.20593162,33.8639278 C0.20593162,34.9829097 0.558957254,35.3657193 1.70629056,35.3657193 L2.088735,35.3657193 C3.20664951,35.3657193 3.58909395,35.0123566 3.58909395,33.8639278 L3.58909395,26.5610981 L9.94355536,26.5610981 C15.5919655,26.5610981 18.210239,24.0581122 18.210239,18.6987775 C18.1808202,13.2805491 15.5625467,10.80701 9.91413655,10.80701 Z M14.8270766,18.6693306 C14.8270766,21.7318076 14.032769,23.3808336 9.91413655,23.3808336 L3.55967514,23.3808336 L3.55967514,15.4596192 C3.55967514,14.3700841 3.97153838,13.9578276 5.06003409,13.9578276 L9.91413655,13.9578276 C13.0325297,13.9578276 14.8270766,14.7234469 14.8270766,18.6693306 Z M25.2413328,16.1957915 C23.0643414,16.1957915 21.7110765,16.4608136 21.2109568,16.5786012 C20.298974,16.7847294 19.9165295,17.0203046 19.9165295,18.0803927 L19.9165295,18.3748617 C19.9165295,18.7871182 19.9753671,19.0521402 20.0930423,19.2582685 C20.2401363,19.4938436 20.4754868,19.6116312 20.7990936,19.6116312 C20.9461876,19.6116312 21.1521192,19.5821843 21.3580509,19.5232905 C21.8875893,19.405503 23.5350423,19.111034 25.359008,19.111034 C28.6244952,19.111034 29.9777601,20.0238877 29.9777601,22.2324047 L29.9777601,24.2053466 L25.8591277,24.2053466 C20.5637432,24.2053466 18.0925637,26.0016071 18.0925637,29.8591502 C18.0925637,33.5989057 20.6519996,35.6601883 25.2707516,35.6601883 C30.7720678,35.6601883 33.2432472,33.7755871 33.2432472,29.5646813 L33.2432472,22.2324047 C33.2432472,18.1687334 30.6249737,16.1957915 25.2413328,16.1957915 Z M29.9777601,26.885014 L29.9777601,29.4763406 C29.9777601,31.56707 29.2128712,32.8038396 25.211914,32.8038396 C22.5936406,32.8038396 21.2992133,31.861539 21.2992133,29.8885971 C21.2992133,27.7389739 22.5936406,26.9144608 25.8591277,26.9144608 L29.9777601,26.9144608 L29.9777601,26.885014 Z M51.4534862,18.2276272 L47.1877597,35.2479318 C45.95217,40.2539037 43.8045974,42.37408 39.833059,42.6391021 L39.538871,42.6391021 C38.6857257,42.6391021 38.4209565,42.1679518 38.2444437,41.4023325 L38.1856061,41.0784167 C38.1267685,40.725054 38.0679309,40.3422444 38.2738625,40.0772223 C38.4797941,39.8122003 38.8328197,39.7238596 39.3623582,39.6944127 C42.0394692,39.4293907 42.9220333,38.1926211 43.8045974,35.3951662 C43.3927342,35.5424007 42.8926145,35.6012945 42.3336573,35.6012945 C39.4211958,35.6012945 38.6268881,33.5694588 37.9502557,31.0959198 L34.4788369,18.2570741 C34.3611617,17.8153707 34.2729053,17.3736673 34.5082557,17.0791983 C34.7436061,16.7847294 35.1848882,16.7258356 35.6261702,16.7258356 L35.9203583,16.7258356 C37.0382728,16.7258356 37.450136,17.0497515 37.744324,18.1098396 L41.2157428,30.8897915 C41.6570248,32.4799238 42.1277257,32.7449458 43.2456402,32.7449458 C44.1576231,32.7449458 44.7165803,32.4504769 45.0990247,30.8897915 L48.1585802,18.1098396 C48.3939307,17.0497515 48.8352127,16.6963887 49.9531272,16.6963887 L50.276734,16.6963887 C50.7180161,16.6963887 51.1592981,16.7258356 51.3946485,17.0203046 C51.629999,17.3736673 51.5711614,17.8153707 51.4534862,18.2276272 Z M76.4594686,16.2252384 L76.4594686,18.1687334 L76.4594686,23.3513867 L76.4594686,26.1782885 C76.4594686,28.269018 75.9887677,30.0063847 75.0767848,31.4198356 C73.3410755,34.1583967 69.9579131,35.6307414 65.1332295,35.6307414 C65.1332295,35.6307414 65.1332295,35.6307414 65.1038107,35.6307414 C65.0743919,35.6307414 65.1038107,35.6307414 65.0743919,35.6307414 C60.2497082,35.6307414 56.8665459,34.1583967 55.1308365,31.4198356 C54.2188536,30.0063847 53.7481528,28.2395711 53.7481528,26.1782885 L53.7481528,23.3513867 L53.7481528,18.1687334 L53.7481528,13.2511022 C53.7481528,11.1603727 54.6012981,10.7775631 56.8959647,10.7775631 L57.6020159,10.7775631 C59.8966826,10.7775631 60.7498278,11.1603727 60.7498278,13.2511022 L60.7498278,18.1392865 L60.7498278,18.1687334 L60.7498278,19.2288216 L60.7498278,19.3466092 L60.7498278,26.1782885 C60.7498278,27.0028015 60.8969219,27.6800801 61.2499475,28.1806773 C61.8677424,29.1524248 63.1033321,29.5646813 65.0743919,29.5941282 C67.0454517,29.5941282 68.2810414,29.1524248 68.8988362,28.1806773 C69.2224431,27.6506332 69.3989559,27.0028015 69.3989559,26.1782885 L69.3989559,19.3466092 L69.3989559,19.2288216 L69.3989559,18.1687334 L69.3989559,18.1392865 L69.3989559,13.2511022 C69.3989559,11.1603727 70.2521012,10.7775631 72.5467678,10.7775631 L72.9880498,10.7775631 L72.9880498,10.1002845 C72.9880498,9.54079356 73.4293319,9.09909015 73.9882891,9.09909015 L79.0483232,9.09909015 C79.6072805,9.09909015 80.0485625,9.54079356 80.0485625,10.1002845 L80.0485625,15.224044 C80.0485625,15.783535 79.6072805,16.2252384 79.0483232,16.2252384 L76.4594686,16.2252384 Z M76.4594686,16.2252384 L76.4594686,13.2511022 C76.4594686,11.1898196 75.6063233,10.80701 73.2528191,10.7775631 L72.9880498,10.7775631 L72.9880498,15.224044 C72.9880498,15.783535 73.4293319,16.2252384 73.9882891,16.2252384 L76.4594686,16.2252384 Z M84.5496393,9.09909015 L80.7840326,9.09909015 C80.3721693,9.09909015 80.0485625,8.77517432 80.0485625,8.36291781 L80.0485625,4.53482163 C80.0485625,4.12256512 80.3721693,3.79864929 80.7840326,3.79864929 L84.5496393,3.79864929 C84.9615026,3.79864929 85.2851094,4.12256512 85.2851094,4.53482163 L85.2851094,8.36291781 C85.2851094,8.77517432 84.9615026,9.09909015 84.5496393,9.09909015 Z M79.5484429,3.79864929 L76.989007,3.79864929 C76.7242378,3.79864929 76.4888874,3.56307414 76.4888874,3.29805209 L76.4888874,0.706725449 C76.4888874,0.441703406 76.7242378,0.206128256 76.989007,0.206128256 L79.5484429,0.206128256 C79.8132121,0.206128256 80.0485625,0.441703406 80.0485625,0.706725449 L80.0485625,3.29805209 C80.0485625,3.56307414 79.8132121,3.79864929 79.5484429,3.79864929 Z" id="Shape"></path>
                    </g>
                </g>
            </g>
        </g>
    </g>
</svg>