<?xml version="1.0" encoding="UTF-8"?>
<svg width="151px" height="26px" viewBox="0 0 151 26" version="1.1" xmlns="http://www.w3.org/2000/svg" xmlns:xlink="http://www.w3.org/1999/xlink">
    <!-- Generator: Sketch 46.2 (44496) - http://www.bohemiancoding.com/sketch -->
    <title>Rakuten_logo_2</title>
    <desc>Created with Sketch.</desc>
    <defs></defs>
    <g id="Kreditech-Homepage" stroke="none" stroke-width="1" fill="none" fill-rule="evenodd">
        <g transform="translate(-725.000000, -4741.000000)" id="section-6-partners" fill="#363636">
            <g transform="translate(0.000000, 4076.000000)">
                <g id="Group-18" transform="translate(389.000000, 275.000000)">
                    <g id="Rakuten_logo_2" transform="translate(336.500000, 390.290818)">
                        <g id="Group">
                            <path d="M25.2895,12.888 C25.2895,19.871 19.6285,25.53 12.644,25.53 C5.6565,25.53 0,19.8715 0,12.888 C0,5.9035 5.6565,0.2405 12.644,0.2405 C19.6285,0.2405 25.2895,5.9035 25.2895,12.888 Z M10.9725,19.6815 L10.9725,15.467 L12.799,15.467 L15.961,19.6815 L19.1935,19.6815 L15.373,14.596 C16.5635,13.7415 17.346,12.3515 17.346,10.7775 C17.346,8.192 15.2435,6.0925 12.6585,6.0925 L8.39,6.0925 L8.39,19.682 L10.9725,19.682 L10.9725,19.6815 Z" id="Combined-Shape" fill-rule="nonzero"></path>
                            <path d="M10.9725,8.6725 L12.6575,8.6725 C13.817,8.6725 14.7655,9.616 14.7655,10.7775 C14.7655,11.9425 13.817,12.885 12.6575,12.885 L10.9725,12.885 L10.9725,8.6725 Z" id="Shape"></path>
                        </g>
                        <path d="M110.6675,19.1955 C110.4335,19.6855 109.912,20.4025 108.857,20.4025 C108.1815,20.4025 106.9075,19.9495 106.9075,18.23 L106.9075,10.37 L113.2795,10.37 L113.2795,6.0455 L106.9075,6.0455 L106.9075,1.505 L102.5825,1.505 L102.5825,6.0455 L99.5115,6.0455 L99.5115,10.37 L102.5825,10.37 L102.5825,18.23 C102.5815,22.2985 105.773,24.7285 108.857,24.7285 C112.0125,24.7285 114.1035,22.5805 114.8795,20.327 L110.6675,19.1955 Z" id="Shape" fill-rule="nonzero"></path>
                        <path d="M57.2465,6.0455 L57.2465,6.854 C55.9995,6.06 54.5655,5.598 53.0345,5.598 C48.3305,5.598 44.5035,9.888 44.5035,15.1565 C44.5035,20.4265 48.33,24.7135 53.0345,24.7135 C54.5655,24.7135 56,24.2535 57.2465,23.458 L57.2465,24.266 L61.571,24.266 L61.571,6.0455 L57.2465,6.0455 Z M53.0345,20.389 C50.715,20.389 48.827,18.0415 48.827,15.156 C48.827,12.2725 50.715,9.925 53.0345,9.925 C55.357,9.925 57.2465,12.2725 57.2465,15.156 C57.2465,18.0415 55.357,20.389 53.0345,20.389 Z" id="Shape" fill-rule="nonzero"></path>
                        <path d="M93.6735,6.0455 L93.6735,16.749 C93.6735,18.7565 92.0415,20.389 90.0325,20.389 C88.025,20.389 86.392,18.7565 86.392,16.749 L86.392,6.0455 L82.067,6.0455 L82.067,16.749 C82.067,21.1405 85.6405,24.7135 90.0325,24.7135 C91.344,24.7135 92.581,24.391 93.6735,23.8255 L93.6735,24.266 L97.998,24.266 L97.998,6.0455 L93.6735,6.0455 Z" id="Shape" fill-rule="nonzero"></path>
                        <path d="M142.0345,5.598 C140.723,5.598 139.4875,5.9235 138.395,6.487 L138.395,6.0455 L134.07,6.0455 L134.07,24.266 L138.395,24.266 L138.395,13.5645 C138.395,11.555 140.027,9.9215 142.0345,9.9215 C144.0425,9.9215 145.675,11.555 145.675,13.5645 L145.675,24.2655 L150,24.2655 L150,13.5645 C150,9.174 146.428,5.598 142.0345,5.598 Z" id="Shape" fill-rule="nonzero"></path>
                        <path d="M132.34,15.1555 C132.34,9.8785 128.5105,5.583 123.805,5.583 C119.019,5.583 115.2695,9.789 115.2695,15.1555 C115.2695,20.7985 120.083,24.7295 124.404,24.7295 C126.585,24.7295 129.571,23.9815 131.919,20.651 L128.153,18.476 C124.959,22.378 120.508,19.7295 120.064,16.4285 L132.256,16.431 C132.304,16.007 132.34,15.581 132.34,15.1555 Z M127.45,12.5625 L120.157,12.5625 C120.9665,9.0195 126.6475,8.2815 127.45,12.5625 Z" id="Shape" fill-rule="nonzero"></path>
                        <polygon id="Shape" fill-rule="nonzero" points="72.66 14.586 81.202 6.0455 75.0855 6.0455 68.491 12.642 68.491 0 64.166 0 64.166 24.2655 68.491 24.2655 68.491 16.5315 76.2235 24.2655 82.337 24.2655"></polygon>
                        <path d="M32.1435,24.2655 L32.1435,17.2065 L35.2025,17.2065 L40.4985,24.2655 L45.9125,24.2655 L39.513,15.748 C41.5075,14.3165 42.817,11.989 42.817,9.352 C42.817,5.022 39.296,1.505 34.966,1.505 L27.8185,1.505 L27.8185,24.266 L32.1435,24.266 L32.1435,24.2655 Z M32.1435,5.8265 L34.966,5.8265 C36.908,5.8265 38.4965,7.4065 38.4965,9.352 C38.4965,11.303 36.908,12.882 34.966,12.882 L32.1435,12.882 L32.1435,5.8265 L32.1435,5.8265 Z" id="Shape" fill-rule="nonzero"></path>
                    </g>
                </g>
            </g>
        </g>
    </g>
</svg>